<?xml version="1.0" encoding="UTF-8" standalone="no"?>
<!-- Created with Inkscape (http://www.inkscape.org/) -->

<svg
   width="451"
   height="98.745003"
   viewBox="0 0 119.32708 26.126285"
   version="1.1"
   id="svg1"
   xml:space="preserve"
   sodipodi:docname="avontuur.svg"
   inkscape:export-filename="avontuur.png"
   inkscape:export-xdpi="96"
   inkscape:export-ydpi="96"
   inkscape:version="1.3.2 (091e20e, 2023-11-25, custom)"
   xmlns:inkscape="http://www.inkscape.org/namespaces/inkscape"
   xmlns:sodipodi="http://sodipodi.sourceforge.net/DTD/sodipodi-0.dtd"
   xmlns="http://www.w3.org/2000/svg"
   xmlns:svg="http://www.w3.org/2000/svg"><sodipodi:namedview
     id="namedview1"
     pagecolor="#ffffff"
     bordercolor="#000000"
     borderopacity="0.25"
     inkscape:showpageshadow="2"
     inkscape:pageopacity="0.0"
     inkscape:pagecheckerboard="0"
     inkscape:deskcolor="#d1d1d1"
     inkscape:document-units="mm"
     inkscape:zoom="1.5042685"
     inkscape:cx="215.38708"
     inkscape:cy="8.3096867"
     inkscape:window-width="1536"
     inkscape:window-height="793"
     inkscape:window-x="-8"
     inkscape:window-y="-8"
     inkscape:window-maximized="1"
     inkscape:current-layer="layer1"
     showguides="true" /><defs
     id="defs1"><filter
       style="color-interpolation-filters:sRGB"
       inkscape:label="Blur"
       id="filter72"
       x="-0.37674153"
       y="-0.60643208"
       width="1.7534831"
       height="2.2128642"><feGaussianBlur
         stdDeviation="2 2"
         result="fbSourceGraphic"
         id="feGaussianBlur72" /><feColorMatrix
         result="fbSourceGraphicAlpha"
         in="fbSourceGraphic"
         values="0 0 0 -1 0 0 0 0 -1 0 0 0 0 -1 0 0 0 0 1 0"
         id="feColorMatrix72" /><feGaussianBlur
         id="feGaussianBlur73"
         stdDeviation="0.01 0.01"
         result="blur"
         in="fbSourceGraphic" /></filter></defs><g
     inkscape:label="Layer 1"
     inkscape:groupmode="layer"
     id="layer1"><path
       style="opacity:0.634615;fill:#2d8c9f;fill-opacity:1;stroke-width:0.263523"
       d="M 22.265642,14.054402 C 20.364388,13.84973 19.104267,13.363774 18.082475,12.441196 17.467613,11.886037 17.04102,11.154287 16.720347,10.104689 16.607523,9.735404 16.593384,9.2239554 16.573925,4.8079144 l -0.02154,-4.88802032 h 2.856629 2.856629 V 4.1403359 c 0,2.793681 0.02634,4.3377175 0.07793,4.5673518 0.169352,0.7538748 0.808711,1.2010489 1.634696,1.1433209 0.515755,-0.036048 0.899328,-0.2192972 1.117336,-0.5338007 0.379655,-0.5476992 0.381211,-0.5687078 0.381211,-5.1502834 v -4.24703042 h 2.500253 2.500254 l -0.02201,4.88802032 c -0.02166,4.8100893 -0.02454,4.89671 -0.180659,5.4330256 -0.279079,0.958711 -0.676044,1.63085 -1.329976,2.251907 -0.950008,0.902245 -2.093338,1.364894 -3.859905,1.561911 -1.084124,0.120909 -1.693392,0.120831 -2.819134,-2.57e-4 z m 21.800288,0.02776 C 42.596509,13.975546 41.423488,13.720576 40.709877,13.35269 l -0.354633,-0.182821 -0.01894,-2.000579 -0.01894,-2.00058 0.161647,0.034446 c 0.08891,0.018938 0.530935,0.1416399 0.982283,0.2726532 2.046183,0.5939488 3.149734,0.7339108 3.62149,0.4593114 0.199676,-0.1162282 0.231917,-0.1730298 0.231917,-0.4085754 0,-0.3816631 -0.328905,-0.6647391 -1.465446,-1.2612513 C 42.669843,7.6462688 42.236811,7.3726936 41.696294,6.905112 41.218393,6.4916971 40.692999,5.7461683 40.4944,5.1996303 40.309636,4.6911698 40.271457,3.4140146 40.424301,2.8547408 c 0.503617,-1.8427747 2.109463,-2.93919952 4.807707,-3.28256247 0.391725,-0.0498485 1.127251,-0.0645294 2.009409,-0.0401071 1.315175,0.0364102 1.899019,0.10390243 3.121975,0.36089959 L 50.88075,0.00169028 V 1.9452949 3.8888999 L 50.577466,3.8502145 C 50.410662,3.8289414 49.904896,3.7434551 49.453559,3.66025 48.879454,3.5544165 48.347082,3.507094 47.681445,3.5027292 c -0.917557,-0.00602 -0.956352,-5.177e-4 -1.08823,0.1545914 -0.32789,0.3856168 -0.07114,0.6105053 1.596423,1.3983041 1.486456,0.7022381 2.246077,1.2014927 2.708227,1.7799533 0.570811,0.7144815 0.82507,1.4366587 0.889332,2.525988 0.07809,1.32349 -0.322263,2.357607 -1.249782,3.228225 -1.356024,1.272847 -3.304483,1.722176 -6.471494,1.492372 z m 36.000811,-0.02629 C 76.93197,13.724021 75.170135,12.477876 74.530004,10.13975 74.312152,9.3439887 74.280369,8.524937 74.301305,4.2458713 l 0.021,-4.29192021 2.854385,-0.01780772 2.854363,-0.01780771 -0.02278,4.00316124 c -0.02361,4.1630795 0.004,4.6879789 0.274327,5.1953607 0.173602,0.3259033 0.408434,0.5209835 0.776301,0.6448923 0.669434,0.2254851 1.363576,0.066846 1.77069,-0.4046744 0.441649,-0.5115111 0.44829,-0.5890935 0.44829,-5.2348953 v -4.20228822 h 2.501098 2.501083 L 88.25492,4.7738495 c -0.02465,4.7626372 -0.0281,4.8648516 -0.184238,5.4330265 -0.403628,1.469039 -1.283518,2.54346 -2.580659,3.151223 -0.848294,0.397457 -1.503991,0.57118 -2.639865,0.699416 -1.043578,0.117817 -1.658406,0.117451 -2.783452,-0.0015 z m 13.915076,0.02795 C 92.276444,13.95779 91.050772,13.673836 90.396011,13.253097 l -0.196244,-0.1261 v -1.978952 c 0,-1.8521473 0.0081,-1.9767918 0.124878,-1.9452267 0.06868,0.018539 0.510224,0.1407104 0.981194,0.2714698 2.251499,0.6251009 3.175035,0.7414719 3.657169,0.4608256 0.198902,-0.1157806 0.231923,-0.1734598 0.231923,-0.4052207 0,-0.3439676 -0.266196,-0.6040456 -1.047306,-1.0232467 C 92.350157,7.5419889 92.085933,7.3728893 91.481888,6.8005792 90.810167,6.1641554 90.500394,5.6798939 90.306964,4.9638371 90.167046,4.4458924 90.152432,3.3651255 90.27876,2.8753495 c 0.470439,-1.8244762 2.129317,-2.9582212 4.833503,-3.3034244 0.884066,-0.1128543 3.191084,-0.0377136 4.150191,0.135173 1.128056,0.20333951 1.238266,0.22684124 1.373666,0.2929019 0.11444,0.05583107 0.12489,0.2202747 0.12489,1.9660501 v 1.9051244 l -0.19625,-0.00171 c -0.10792,-9.467e-4 -0.34073,-0.033525 -0.51736,-0.07246 C 99.206627,3.6116456 98.506465,3.5202719 97.645657,3.4835685 L 96.706771,3.443534 96.521744,3.6201717 c -0.417074,0.3981729 -0.180556,0.6350146 1.326173,1.3279872 1.974287,0.9080169 2.685033,1.4402131 3.296983,2.4687618 0.33938,0.5704364 0.47255,1.1935416 0.47147,2.2062239 -9.9e-4,0.7981404 -0.0217,0.9470234 -0.2011,1.4390894 -0.84722,2.323361 -3.313854,3.326003 -7.433408,3.021545 z M 0.00151556,6.8687164 v -6.94882232 h 2.81869784 2.818695 l 0.00104,2.50361992 c 5.917e-4,1.3769914 0.024673,2.5386271 0.05352,2.5814118 0.039147,0.058101 0.3414304,0.054426 1.1941737,-0.014516 C 7.515602,4.9396419 8.1738923,4.8893074 8.3505068,4.8785567 l 0.321117,-0.019545 0.035678,-2.4525262 0.035678,-2.45252556 h 2.8186962 2.818695 V 6.8687174 13.783478 H 11.561676 8.7429797 L 8.7242531,11.271137 8.7055265,8.7587963 8.0463413,8.8032807 C 6.697963,8.8942739 5.744338,9.0052006 5.6934635,9.0769708 c -0.02884,0.040678 -0.052918,1.1239462 -0.05352,2.4072642 l -0.00104,2.333306 H 2.8202135 0.00151581 Z M 32.660322,13.772123 c -0.02616,-0.02498 -0.04757,-3.151949 -0.04757,-6.9488229 V -0.08010592 H 35.467125 38.3215 V 6.8687164 13.817541 h -2.806801 c -1.543742,0 -2.828211,-0.02044 -2.854378,-0.04542 z M 53.806486,6.8687164 v -6.94882232 h 1.007446 1.007455 l 0.259175,0.21214956 c 0.14256,0.11668233 0.628471,0.55476494 1.079812,0.97351686 0.451351,0.4187522 1.414702,1.296528 2.140785,1.9506139 0.726083,0.6540861 1.827591,1.6574884 2.447792,2.2297832 0.781618,0.721236 1.157471,1.0244296 1.224838,0.9880508 0.05346,-0.028869 0.236421,-0.1760697 0.406582,-0.3271168 0.170166,-0.1510474 0.742891,-0.6561222 1.272749,-1.122389 0.529838,-0.4662671 1.47713,-1.3085422 2.105097,-1.8717225 1.123774,-1.0078452 2.555562,-2.27727238 3.131575,-2.77645301 l 0.29367,-0.25450988 1.017213,-9.5098e-4 1.017213,-9.5097e-4 -0.0182,6.93179184 -0.0182,6.9317919 -2.979252,0.01778 -2.979252,0.01778 v -2.18077 c 0,-1.245076 -0.02756,-2.1807707 -0.06415,-2.1807707 -0.05598,0 -1.586338,1.5450697 -3.111339,3.1412727 -0.274741,0.287559 -0.535267,0.526138 -0.578948,0.530175 -0.04374,0.0041 -0.233786,-0.153605 -0.422428,-0.350319 -0.188632,-0.196713 -0.555271,-0.572256 -0.814741,-0.83454 -0.25946,-0.262283 -0.839227,-0.860087 -1.288364,-1.328452 -1.035151,-1.0794651 -0.97514,-1.021885 -1.064957,-1.021885 -0.05272,0 -0.07645,0.655521 -0.07645,2.111897 v 2.111898 h -2.49756 -2.497587 z"
       id="path99" /><path
       style="fill:#e6e6e6;stroke-width:0.401237"
       d="m 79.545818,-9.1270708 c 0,-0.08758 0.04759,-0.159242 0.105801,-0.159242 0.191023,0 1.674248,-1.4853242 1.847232,-1.8498372 0.142076,-0.299398 0.170045,-0.847655 0.175229,-3.434005 0.0032,-1.773782 -0.04607,-3.470436 -0.117196,-4.004663 -0.08978,-0.674145 -0.09173,-0.99633 -0.0076,-1.181342 0.165059,-0.362281 0.268147,-5.303572 0.129034,-6.185427 -0.06093,-0.386103 -0.163931,-1.323045 -0.228936,-2.082093 -0.06506,-0.759051 -0.180421,-1.478071 -0.256459,-1.59783 -0.076,-0.119751 -0.561407,-0.42322 -1.078578,-0.67437 -0.51716,-0.251151 -1.023252,-0.499517 -1.12464,-0.551932 -0.101374,-0.05241 -0.253825,-0.09529 -0.338755,-0.09529 -0.219179,0 -0.327203,-0.219441 -0.159152,-0.323301 0.07762,-0.04798 0.480149,-0.119003 0.894481,-0.157832 0.910643,-0.08533 4.193823,-0.124235 4.192252,-0.04967 -5.96e-4,0.02921 -0.07253,0.288684 -0.159931,0.57665 -0.190622,0.628379 -0.339788,2.608172 -0.196508,2.608172 0.05443,0 0.316065,-0.226921 0.581439,-0.504262 0.481297,-0.502994 1.502446,-1.421059 2.005568,-1.803093 0.368375,-0.279728 1.486163,-0.665147 1.929062,-0.665147 0.548735,0 1.361468,0.271983 1.921793,0.643129 0.78704,0.521309 2.227869,2.726394 2.47916,3.794165 0.1574,0.6688 0.180547,2.041237 0.04699,2.781637 -0.552426,3.060559 -1.165927,4.29646 -2.495579,5.027327 -0.783446,0.430634 -2.121756,0.917674 -2.521614,0.917674 -0.614528,0 -3.032953,-1.185301 -3.766949,-1.846225 -0.619688,-0.558001 -0.732904,-0.514804 -0.61547,0.234811 0.04282,0.2732 0.08748,0.97445 0.09943,1.558334 0.0285,1.399984 0.148361,3.13649 0.271181,3.927946 0.05444,0.350334 0.149677,0.995257 0.211798,1.433171 0.194339,1.370002 0.250542,1.487318 1.111401,2.31979 0.438953,0.424477 0.798091,0.7927573 0.798091,0.8184043 0,0.02563 -0.226919,0.04676 -0.504259,0.04695 -0.869645,4.02e-4 -3.657995,0.3001179 -4.379134,0.4704869 -0.852526,0.201412 -0.849284,0.201386 -0.849284,0.0069 z M 87.994929,-19.39812 c 0.563096,-0.38016 1.10609,-1.185881 1.365497,-2.0262 0.08711,-0.282375 0.249489,-0.664553 0.360723,-0.849287 0.259235,-0.43056 0.383078,-1.66207 0.377061,-3.749308 -0.0055,-1.805832 0.01848,-1.733274 -0.922837,-2.828158 -0.728208,-0.847012 -1.161906,-0.995141 -2.736854,-0.934734 -0.506429,0.01941 -2.707498,1.798831 -3.25084,2.628073 -0.178814,0.272899 -0.307838,1.452738 -0.419003,3.831473 l -0.0657,1.406436 0.889667,0.878208 c 1.021952,1.008796 1.523585,1.371127 2.393424,1.72878 0.877676,0.360874 1.379586,0.339564 2.008882,-0.08527 z m 64.877911,5.855655 c -1.24099,-0.292222 -1.79253,-1.022417 -2.40212,-3.180336 -0.18227,-0.645213 -0.21499,-0.976323 -0.16786,-1.698571 0.30351,-4.649486 0.42229,-7.11141 0.41458,-8.593785 -0.0113,-2.053394 -0.1031,-2.315177 -0.98804,-2.79681 -0.62029,-0.337603 -1.26179,-0.366617 -2.12439,-0.09607 -0.51059,0.16015 -0.7371,0.332244 -1.64174,1.247386 -0.57719,0.583883 -1.16517,1.22881 -1.30666,1.433168 -0.1415,0.204362 -0.42765,0.610426 -0.63591,0.902368 l -0.37866,0.530805 0.0664,1.008527 c 0.0366,0.554691 0.11491,1.840418 0.17417,2.857171 0.0592,1.016754 0.16635,1.967608 0.23795,2.113009 0.0716,0.145402 0.38069,0.391744 0.6869,0.547433 0.57986,0.294828 1.1289,0.741117 1.03151,0.838482 -0.0311,0.03103 -1.21318,0.0692 -2.62705,0.08488 -1.41387,0.01567 -2.72593,0.05597 -2.91569,0.08955 -0.5257,0.09302 -0.41784,-0.120065 0.21231,-0.419516 0.67292,-0.319758 1.67517,-0.958035 1.79816,-1.145129 0.0489,-0.07457 0.0825,-0.804391 0.0743,-1.621829 -0.009,-0.817439 -8e-4,-1.534022 0.0163,-1.592408 0.0173,-0.05838 7.9e-4,-0.273368 -0.0365,-0.477727 -0.0375,-0.204357 -0.0948,-1.441995 -0.1279,-2.750303 -0.0751,-2.971796 -0.16965,-3.296696 -1.17769,-4.042541 -0.35618,-0.263543 -0.80557,-0.56484 -0.9986,-0.669552 -0.19941,-0.108156 -0.30943,-0.228558 -0.25474,-0.27876 0.0529,-0.0486 1.09185,-0.114828 2.30871,-0.147162 l 2.21249,-0.05879 -0.0715,0.284463 c -0.0735,0.292128 -0.35575,2.160348 -0.4482,2.965028 -0.0296,0.256999 -0.008,0.451184 0.0513,0.451184 0.0568,0 0.52737,-0.4854 1.04576,-1.078666 1.26368,-1.446191 1.67613,-1.833817 2.42878,-2.282574 0.62873,-0.374865 0.64795,-0.37887 1.48627,-0.309812 0.7092,0.05844 1.01013,0.148634 1.82461,0.546954 1.15135,0.563069 1.49356,0.952727 1.84087,2.096192 0.20438,0.67285 0.22268,0.918691 0.17122,2.297322 -0.0315,0.849118 -0.10671,1.878251 -0.16675,2.28697 -0.0601,0.408721 -0.14154,2.521994 -0.18119,4.696172 -0.0676,3.701073 -0.0596,3.98067 0.12333,4.386448 0.22611,0.501381 0.60909,0.737248 1.19709,0.737248 1.03865,0 1.40122,-0.412396 1.40122,-1.593827 0,-0.821616 -0.28149,-1.166352 -0.95236,-1.166352 -0.38676,0 -0.44909,0.0376 -0.60523,0.36498 -0.16179,0.339274 -0.16149,0.384133 0.005,0.636964 0.19044,0.290632 0.38537,0.336422 0.70466,0.165534 0.13057,-0.06988 0.22116,-0.07044 0.26367,-0.0016 0.11112,0.179731 -0.60266,0.540078 -1.00733,0.508574 l -0.37155,-0.02892 0.009,-0.690044 c 0.008,-0.520079 0.0708,-0.790972 0.2562,-1.099796 0.23002,-0.38313 0.27222,-0.406237 0.64934,-0.355658 0.55409,0.07432 1.1512,0.388737 1.40964,0.742261 0.26794,0.366539 0.36735,1.615322 0.16706,2.098838 -0.19502,0.470812 -0.98457,1.118189 -1.53182,1.255993 -0.5317,0.13388 -0.59202,0.134018 -1.1499,0.0027 z m 5.32539,-3.481837 c -0.26972,-0.03933 -0.6546,-0.184016 -0.85528,-0.321535 -0.30794,-0.211005 -0.77891,-0.838499 -0.92281,-1.229538 -0.0215,-0.05838 -0.17695,-0.325628 -0.34545,-0.593858 l -0.30641,-0.4877 0.0501,-2.43172 c 0.0391,-1.89851 0.20452,-5.909754 0.29067,-7.049717 0.0351,-0.464785 -0.0297,-0.636961 -0.23934,-0.636961 -0.11985,0 -0.54977,-0.07549 -0.95543,-0.167753 -1.05853,-0.240754 -0.9736,-0.42093 0.24163,-0.51267 0.56799,-0.04287 1.01313,-0.127288 1.05999,-0.201011 0.24078,-0.378746 -0.0235,-3.684339 -0.32818,-4.105067 -0.25839,-0.356772 -0.9668,-0.692616 -2.18056,-1.033773 -0.55916,-0.157164 -1.01666,-0.323955 -1.01666,-0.370642 0,-0.04669 0.28352,-0.08488 0.63004,-0.08488 0.34653,0 0.75697,-0.04826 0.9121,-0.107233 0.35839,-0.136256 3.57946,-0.333639 3.68736,-0.225956 0.0444,0.04431 0.0312,0.34043 -0.0296,0.658058 -0.0605,0.317628 -0.12919,0.81636 -0.15238,1.108305 -0.0232,0.291942 -0.14129,1.213851 -0.26244,2.04869 -0.12113,0.834843 -0.22024,1.682802 -0.22024,1.884358 v 0.36646 l 0.61041,-8.02e-4 c 0.72868,-8.03e-4 3.30366,0.208312 3.52985,0.286808 0.30843,0.107029 -0.62812,0.338179 -1.82968,0.45158 -1.6916,0.159649 -2.31929,0.273967 -2.43061,0.442665 -0.0532,0.08069 -0.0644,0.313925 -0.025,0.518282 0.0395,0.204362 0.0827,1.470328 0.0958,2.813262 0.0193,1.945761 0.0776,2.808863 0.28715,4.249389 0.14464,0.994226 0.34133,1.95915 0.43703,2.144265 0.49066,0.94883 2.42178,1.617857 3.25282,1.126936 0.54271,-0.320573 1.03198,-1.764032 0.91957,-2.712935 -0.0752,-0.634337 -0.48696,-1.319337 -0.88395,-1.470277 -0.20878,-0.07938 -0.36463,-0.05933 -0.65232,0.08389 -0.55803,0.277825 -0.79524,0.667721 -0.84773,1.393378 -0.0406,0.560186 -0.0197,0.641936 0.20253,0.797632 0.31368,0.219705 0.7729,0.222792 0.98905,0.0067 0.23838,-0.238394 0.20695,-0.469707 -0.10853,-0.799034 -0.27102,-0.282884 -0.27185,-0.288548 -0.0531,-0.357987 0.25465,-0.08084 0.66317,0.02259 0.77802,0.196921 0.11576,0.175726 0.0975,0.686026 -0.0337,0.930567 -0.14674,0.274174 -0.78732,0.543974 -1.08739,0.457997 -0.58728,-0.168254 -0.92175,-0.386375 -0.93789,-0.611642 -0.1,-1.393666 0.0213,-2.242127 0.34505,-2.415417 0.1138,-0.0609 0.25258,-0.08251 0.30842,-0.04799 0.056,0.03451 0.29682,0.01026 0.53551,-0.05411 0.58607,-0.157806 1.00829,-0.0063 1.5605,0.559934 0.59365,0.608694 0.71419,1.117875 0.57013,2.408286 -0.14738,1.320066 -0.56295,2.238733 -1.14762,2.537012 -0.90424,0.4613 -2.42139,0.707652 -3.4418,0.558872 z m 9.88557,-0.163142 c -1.13794,-0.315418 -2.62453,-1.201518 -3.01865,-1.799302 l -0.28871,-0.437915 0.0564,-2.176297 c 0.0311,-1.196963 0.0782,-2.319609 0.10535,-2.494777 0.17095,-1.110448 0.3276,-2.90905 0.32982,-3.786694 0.003,-0.944466 -0.0182,-1.04859 -0.25693,-1.302753 -0.14273,-0.151934 -0.77573,-0.523934 -1.40663,-0.826666 -0.63093,-0.30273 -1.14712,-0.583525 -1.14712,-0.623984 0,-0.128257 0.94415,-0.208127 3.17007,-0.26817 2.12473,-0.05732 2.8811,-0.01312 2.8811,0.168286 0,0.05038 -0.20305,0.220331 -0.45119,0.377671 -0.61551,0.390262 -1.09619,1.051236 -1.35659,1.865373 -0.26743,0.836055 -0.45049,4.169163 -0.34832,6.341612 l 0.0663,1.413866 0.39708,0.498718 c 0.62301,0.78248 2.02773,1.611719 2.72337,1.607688 1.20081,-0.0069 2.66395,-1.29871 3.08718,-2.725543 0.21723,-0.732302 0.49376,-2.736928 0.39874,-2.890643 -0.0284,-0.04613 -0.0782,-1.200855 -0.11065,-2.56609 l -0.0588,-2.48225 -0.46884,-0.603724 c -0.34649,-0.446183 -0.43582,-0.630807 -0.34234,-0.707513 0.14572,-0.119574 3.59217,-0.347807 3.70413,-0.245303 0.041,0.03742 -0.16213,0.540948 -0.45117,1.11893 -0.28903,0.577982 -0.52553,1.109394 -0.52553,1.180911 0,0.07153 -0.12057,0.345749 -0.26792,0.609406 -0.2151,0.384843 -0.27886,0.67535 -0.32343,1.473082 -0.0305,0.546534 -0.1265,1.474851 -0.21335,2.062924 -0.14009,0.94838 -0.13992,1.138263 8.5e-4,1.680139 0.0873,0.335999 0.23996,1.10712 0.33879,1.713602 0.14713,0.902982 0.23473,1.1695 0.48371,1.471547 0.35764,0.4339 1.36555,0.936777 2.26344,1.129308 0.70523,0.151222 1.00852,0.275392 1.00852,0.412892 0,0.182635 -0.40039,0.255239 -1.80474,0.327268 -0.93541,0.04799 -1.59586,0.136173 -1.90166,0.253937 -0.58643,0.225849 -0.71985,0.120278 -0.79197,-0.626667 -0.069,-0.713684 -0.27583,-1.631082 -0.38282,-1.697204 -0.0478,-0.02948 -0.2326,0.17311 -0.41086,0.450229 -0.41429,0.644032 -1.23685,1.439421 -1.71456,1.657868 -0.45826,0.209567 -1.97118,0.601056 -2.2729,0.588144 -0.12204,-0.0052 -0.43686,-0.06909 -0.69959,-0.141906 z m 13.79023,-0.0024 c -1.13038,-0.311761 -2.46704,-1.081531 -2.96409,-1.70698 l -0.31621,-0.397904 0.008,-1.869755 c 0.008,-1.808363 0.0323,-2.172626 0.31601,-4.576853 0.0724,-0.613081 0.13656,-1.54674 0.14281,-2.074799 0.0151,-1.284334 -0.0656,-1.39611 -1.52319,-2.111546 -0.63244,-0.310381 -1.21468,-0.606136 -1.29393,-0.65723 -0.23867,-0.153941 0.84802,-0.263152 3.19353,-0.320947 2.08389,-0.05135 2.87285,-0.0089 2.87285,0.154715 0,0.04197 -0.19473,0.195055 -0.4327,0.340212 -0.75938,0.463213 -1.32635,1.402574 -1.56891,2.599461 -0.14448,0.713055 -0.24054,4.347452 -0.15628,5.91437 l 0.0678,1.261738 0.59526,0.617849 c 0.68807,0.714202 1.90609,1.388944 2.50723,1.388944 0.45141,0 1.32839,-0.396007 1.86897,-0.843943 0.56074,-0.464665 1.07977,-1.329985 1.30852,-2.181635 0.23025,-0.857177 0.29267,-2.703829 0.19328,-5.716846 l -0.0627,-1.895055 -0.4783,-0.636306 c -0.36317,-0.483109 -0.44454,-0.657194 -0.33796,-0.723055 0.0773,-0.04769 0.69373,-0.115524 1.37011,-0.1507 0.67635,-0.03518 1.48053,-0.08758 1.78708,-0.116459 0.70295,-0.06622 0.70606,-0.01897 0.0797,1.212041 -0.26276,0.516326 -0.47772,0.996262 -0.47772,1.066525 0,0.07026 -0.11569,0.327356 -0.2571,0.571309 -0.27688,0.477732 -0.35402,0.895576 -0.42473,2.301357 -0.025,0.496302 -0.10491,1.224227 -0.1776,1.617611 -0.11416,0.617516 -0.1075,0.82059 0.0484,1.486248 0.0993,0.424055 0.26946,1.24067 0.37805,1.814705 0.15997,0.845422 0.25515,1.105296 0.50102,1.367954 0.34684,0.370507 1.41851,0.895996 2.02511,0.992995 0.36604,0.05852 0.4671,0.02019 0.93678,-0.355362 0.28955,-0.231532 0.72951,-0.610877 0.97764,-0.842993 0.49318,-0.461306 0.50391,-0.514433 0.45567,-2.25937 -0.0113,-0.379525 0.0351,-1.119996 0.10107,-1.645493 0.0899,-0.715174 0.0895,-1.182374 -0.003,-1.857813 -0.15166,-1.121595 -0.48324,-2.827706 -0.70733,-3.639422 -0.19445,-0.704367 -0.35666,-0.851027 -1.6694,-1.509374 -0.87104,-0.436832 -1.22806,-0.796735 -0.63377,-0.638863 0.16819,0.04467 1.21326,0.103097 2.32236,0.129801 2.03548,0.04903 2.36087,0.114395 2.22206,0.446449 -0.0991,0.237086 -0.15668,2.875874 -0.0628,2.875874 0.0423,0 0.24887,-0.34635 0.4588,-0.769667 0.96446,-1.94466 2.28927,-3.052123 3.65121,-3.052123 0.71906,0 2.65307,1.304557 3.04408,2.053322 0.17849,0.341863 0.23175,0.633061 0.23604,1.290742 0.009,1.363991 -0.34727,2.273346 -1.16387,2.971588 -0.47159,0.403244 -0.52715,0.422688 -1.14934,0.402197 -0.63799,-0.02102 -2.30761,-0.52643 -2.55447,-0.773278 -0.18208,-0.182097 -0.12226,-1.594794 0.0861,-2.03399 0.24757,-0.521744 0.49409,-0.72595 1.01871,-0.843817 0.37273,-0.08373 0.50407,-0.063 0.85689,0.135283 0.50186,0.28207 0.52944,0.510649 0.13221,1.095244 -0.28083,0.413289 -0.47593,0.37812 -0.24949,-0.04499 0.13629,-0.254682 -0.0193,-0.642852 -0.25772,-0.642852 -0.41548,0 -1.17497,1.350716 -0.95741,1.702741 0.12278,0.198664 0.92198,0.521767 1.29688,0.524306 0.28848,0.002 0.40412,-0.07905 0.7166,-0.501931 0.68753,-0.930467 0.86353,-2.156613 0.40911,-2.850156 -0.0988,-0.150781 -0.25977,-0.42511 -0.35768,-0.60962 -0.098,-0.184509 -0.31022,-0.400481 -0.47172,-0.479939 -0.25847,-0.127158 -0.38962,-0.115982 -1.09447,0.09327 -0.44044,0.130752 -0.97226,0.334982 -1.18185,0.45384 -1.05565,0.598714 -1.87503,1.76833 -2.46967,3.525308 -0.18558,0.548332 -0.21588,0.910746 -0.21779,2.604508 -8.4e-4,1.082152 0.0335,2.371 0.0773,2.864115 0.0738,0.834524 0.10379,0.918904 0.4317,1.219292 0.19379,0.177494 0.64117,0.489016 0.99417,0.692272 0.59935,0.345078 0.76575,0.547267 0.55672,0.676449 -0.048,0.02972 -0.51388,0.113212 -1.03505,0.18554 -1.08187,0.150134 -2.20347,0.139521 -2.93964,-0.02781 -0.41273,-0.09382 -0.58391,-0.08365 -0.93105,0.05522 -0.29685,0.118779 -0.76611,0.17018 -1.55349,0.17018 -0.88982,0 -1.26055,0.04827 -1.75465,0.228424 -0.37142,0.13542 -0.66506,0.189447 -0.72129,0.132699 -0.0522,-0.05265 -0.14313,-0.477898 -0.20212,-0.945002 -0.10919,-0.864856 -0.29486,-1.543432 -0.41974,-1.534232 -0.038,0.0027 -0.23339,0.264328 -0.43401,0.581156 -0.72875,1.150882 -1.49738,1.659467 -3.03239,2.00648 -0.85626,0.193577 -0.89671,0.193934 -1.54999,0.01376 z m -75.2854,-0.09759 c -0.58623,-0.163776 -1.36604,-0.784676 -1.83149,-1.458253 -0.17739,-0.256705 -0.55217,-0.968343 -0.83287,-1.581421 -0.40807,-0.891289 -0.52219,-1.268081 -0.5694,-1.880062 -0.0936,-1.212214 0.0719,-1.623434 1.02405,-2.545178 0.44122,-0.427149 0.83204,-0.776634 0.86847,-0.776634 0.0364,0 0.25198,-0.149426 0.47897,-0.332053 0.22699,-0.182629 0.79488,-0.520582 1.26198,-0.75101 0.74988,-0.36992 0.91443,-0.412723 1.40591,-0.365736 0.70575,0.06748 1.94213,0.655901 2.69417,1.282218 0.5374,0.447555 0.57282,0.461458 0.60247,0.236525 0.0174,-0.131442 -0.15598,-0.967657 -0.38515,-1.858253 -0.5119,-1.989437 -0.77252,-2.366091 -2.03496,-2.940942 -0.9276,-0.422375 -1.31365,-0.44802 -2.17996,-0.144831 -1.10223,0.385755 -1.91953,1.174058 -2.16589,2.089041 -0.15742,0.584569 -0.036,0.804844 0.57134,1.03681 0.60736,0.231949 0.90617,0.153752 1.49834,-0.392103 0.51841,-0.477846 0.5983,-0.792078 0.23556,-0.926268 -0.38376,-0.141966 -0.77264,0.01637 -0.77264,0.314573 0,0.340747 -0.40913,0.365983 -0.45727,0.0282 -0.10221,-0.717533 1.41933,-0.930579 1.7837,-0.249751 0.40401,0.754925 -1.20308,1.896223 -2.44111,1.733579 -0.62549,-0.08218 -0.81344,-0.18748 -1.00875,-0.565223 -0.23999,-0.46407 -0.3233,-1.511886 -0.15366,-1.93262 0.59877,-1.484998 1.81703,-1.925285 5.35574,-1.935586 0.9964,-0.0027 1.23007,0.0301 1.5924,0.22477 0.58453,0.314081 1.06072,0.83771 1.33466,1.467625 0.12696,0.291945 0.28843,0.602462 0.35881,0.690044 0.0703,0.0876 0.2317,0.438184 0.35848,0.779117 0.2071,0.556887 0.23044,0.826548 0.2299,2.654017 -4.7e-4,1.615121 -0.0471,2.285635 -0.22549,3.254993 -0.29441,1.598093 -0.35217,2.395464 -0.20828,2.87567 0.12422,0.41457 0.30107,0.533027 1.4797,0.991068 0.31219,0.121318 0.57493,0.267513 0.58389,0.324878 0.024,0.154552 -0.64966,0.248024 -2.38666,0.331091 -1.94531,0.09304 -2.03808,0.06548 -1.56112,-0.463103 0.55728,-0.617644 0.82647,-1.120041 0.90216,-1.683744 l 0.0694,-0.518047 -0.57904,0.583886 c -1.27186,1.282466 -3.06321,2.406591 -3.98759,2.502308 -0.22167,0.02295 -0.63068,-0.02187 -0.90893,-0.0996 z m 2.07145,-2.066128 c 1.11763,-0.754173 2.33013,-1.74643 2.83513,-2.320155 0.5399,-0.613331 0.55301,-0.937054 0.0845,-2.086004 -0.28042,-0.687763 -0.448,-0.935228 -0.89491,-1.321553 -0.69635,-0.601935 -1.32839,-0.967313 -1.97665,-1.1427 -0.65971,-0.178481 -1.2446,0.0057 -1.92797,0.607301 -0.82432,0.725566 -1.43738,2.090371 -1.43738,3.199744 0,1.005403 0.82752,2.973972 1.45963,3.472256 0.4278,0.337228 0.9088,0.231346 1.85759,-0.408889 z m -39.199534,1.786634 c -0.08759,-0.0566 -0.282241,-0.103649 -0.432576,-0.104527 -0.150325,-8.02e-4 -1.138757,-0.283314 -2.196495,-0.627599 -3.090889,-1.006055 -4.664985,-2.099861 -5.445828,-3.784177 -0.217692,-0.469598 -0.444849,-1.01898 -0.504802,-1.220875 -0.05995,-0.201894 -0.218669,-0.725373 -0.352719,-1.163288 -0.216393,-0.706923 -0.243355,-1.010482 -0.240482,-2.707097 0.0032,-1.904499 0.01627,-2.006935 0.486894,-3.821788 0.357086,-1.377045 0.748794,-2.240136 1.435621,-3.163296 0.732924,-0.985128 1.484774,-1.728425 2.313916,-2.287577 1.228553,-0.82852 1.849855,-1.044069 3.412179,-1.183795 1.31459,-0.117569 2.268069,0.06745 3.806747,0.738729 2.093731,0.913423 2.990031,1.515617 4.533892,3.046182 0.850617,0.843298 1.118267,1.189481 1.463583,1.893078 0.711858,1.450418 0.756501,1.681551 0.745954,3.862006 -0.01344,2.777083 -0.388908,4.7376 -1.222321,6.382255 -0.439687,0.867682 -2.347718,2.656662 -3.39789,3.185887 -0.05845,0.02941 -0.324955,0.184651 -0.592366,0.344945 -0.854465,0.512189 -1.625063,0.717242 -2.688697,0.715453 -0.530952,-8.02e-4 -1.037034,-0.04793 -1.12461,-0.104528 z m 1.867734,-1.382115 c 1.663841,-0.568755 3.05961,-1.562431 3.654048,-2.601399 0.916608,-1.602019 1.599431,-4.736591 1.433258,-6.579431 -0.199523,-2.21257 -0.964883,-3.951945 -2.410566,-5.478274 -0.828651,-0.874886 -1.459505,-1.098184 -3.111301,-1.101293 -1.354149,-0.0024 -2.030852,0.141994 -2.859036,0.610699 -0.544503,0.308158 -0.629608,0.625646 -0.475933,1.775519 0.133933,1.002152 0.351594,1.451851 0.908206,1.8764 0.325087,0.247961 0.407327,0.266876 0.729888,0.167877 0.199935,-0.06136 0.673578,-0.284959 1.052535,-0.496885 0.583887,-0.326525 0.705754,-0.445617 0.798785,-0.780571 0.168829,-0.607908 0.13454,-0.895139 -0.158273,-1.32606 -0.300216,-0.441811 -0.593093,-0.504717 -1.108618,-0.23813 -0.449554,0.232477 -0.498165,0.524632 -0.160872,0.966843 0.468375,0.614074 0.09226,0.962754 -0.430322,0.398907 -0.304847,-0.328927 -0.316944,-0.470584 -0.09572,-1.119926 0.303077,-0.889463 0.813507,-1.140361 1.654019,-0.813015 1.114134,0.433907 1.347224,1.008292 0.945672,2.330323 -0.281277,0.926036 -0.576081,1.236161 -1.543103,1.623283 -1.177014,0.471193 -1.76049,0.329342 -2.535456,-0.6164 -0.532026,-0.649266 -0.585017,-0.842496 -0.635514,-2.317076 -0.04998,-1.459356 -0.01082,-1.596972 0.640523,-2.22354 0.436893,-0.420592 1.593329,-0.86713 2.587106,-0.998962 0.289763,-0.03844 0.52684,-0.09986 0.52684,-0.136524 0,-0.126552 -0.847613,-0.330651 -1.373184,-0.330651 -0.55629,0 -1.579196,0.183315 -1.758552,0.315157 -0.05845,0.04292 -0.359779,0.167214 -0.669753,0.276218 -1.087681,0.382478 -2.671862,1.980689 -3.113957,3.141537 -0.684365,1.797021 -0.813756,2.305714 -0.981232,3.85758 -0.253935,2.352914 -0.230832,3.66334 0.08077,4.579339 0.212956,0.626119 0.354868,0.839541 0.910927,1.36993 0.362272,0.345548 1.034766,0.89201 1.494436,1.214363 0.45968,0.322354 1.201677,0.872733 1.648902,1.223065 1.280224,1.00285 1.63262,1.238748 2.156935,1.443848 0.649825,0.254204 1.430961,0.249691 2.198565,-0.01271 z m 48.71286,1.090171 c -0.0917,-0.218956 -0.28647,-0.780278 -0.43245,-1.247388 -0.81149,-2.596833 -1.41752,-4.304638 -1.78341,-5.025699 -0.39533,-0.779078 -0.55087,-1.138185 -0.9039,-2.087069 -0.13035,-0.350332 -0.34415,-0.87583 -0.47515,-1.167769 -0.13098,-0.29194 -0.32484,-0.817437 -0.43079,-1.167768 -0.33466,-1.106606 -0.38046,-1.188764 -0.85128,-1.526879 -0.25346,-0.182012 -0.51272,-0.330932 -0.57618,-0.330932 -0.0635,0 -0.11534,-0.07165 -0.11534,-0.159243 0,-0.117523 0.13212,-0.162363 0.50427,-0.171167 1.75772,-0.04157 2.74846,-0.09613 3.53347,-0.19456 1.11585,-0.139916 1.91254,-0.140742 2.11958,-0.002 0.13767,0.0921 0.1309,0.128163 -0.0497,0.265948 -0.115,0.08767 -0.40081,0.211031 -0.6352,0.274141 -0.70307,0.189316 -1.4077,0.598189 -1.70687,0.990423 -0.27164,0.356126 -0.27921,0.40318 -0.20949,1.302014 0.0398,0.512896 0.14321,1.243054 0.2298,1.622579 0.0867,0.379525 0.19895,0.905022 0.24965,1.167771 0.3037,1.574155 1.58933,5.467278 1.80544,5.467278 0.14364,0 0.68432,-0.995029 1.61523,-2.972503 1.17539,-2.496839 2.3294,-5.732414 2.28686,-6.411851 -0.0179,-0.282899 -0.0918,-0.499781 -0.1885,-0.550429 -0.61751,-0.32412 -1.48625,-0.886294 -1.48625,-0.961781 0,-0.09002 0.55845,-0.137623 1.48625,-0.126713 0.26274,0.0032 1.2182,-0.0355 2.12323,-0.08582 2.35452,-0.13083 3.09288,0.03186 2.20283,0.48539 -0.95039,0.484277 -2.41517,1.579745 -2.41517,1.806235 0,0.07357 -0.1172,0.354202 -0.26047,0.623647 -0.14327,0.269453 -0.42487,1.005093 -0.62576,1.634765 -0.49366,1.547211 -1.0172,2.799748 -1.54283,3.691029 -0.2405,0.407791 -0.43727,0.815171 -0.43727,0.905283 0,0.0901 -0.0683,0.26131 -0.1517,0.380431 -0.0834,0.119122 -0.33873,0.571646 -0.56733,1.005609 -0.69936,1.327651 -1.83605,2.965317 -2.05823,2.965317 -0.0475,0 -0.16139,-0.179144 -0.25327,-0.398104 z m 12.95654,-0.07803 c -1.40766,-0.301279 -2.80469,-1.026827 -3.6173,-1.878634 -0.7566,-0.793138 -0.92885,-1.254119 -1.31699,-3.524416 -0.25676,-1.501916 -0.26211,-1.78085 -0.0548,-2.864499 0.22346,-1.16783 1.04306,-2.828829 1.72266,-3.491186 0.7008,-0.683004 1.55505,-1.201093 2.42678,-1.471778 1.12585,-0.349582 1.94813,-0.295586 3.69176,0.242418 1.56752,0.483662 1.86611,0.812488 2.68283,2.954327 0.40466,1.061225 0.56936,2.02502 0.5681,3.324467 -8.5e-4,1.345277 -0.11389,1.81745 -0.72152,3.026218 -1.15071,2.289148 -2.36407,3.513716 -3.65112,3.68494 -0.97937,0.130295 -1.11368,0.130149 -1.73045,-0.002 z m 1.66052,-0.920987 c 0.61387,-0.183914 1.17161,-0.723937 1.83724,-1.778868 0.73178,-1.159789 1.07402,-1.986273 1.16896,-2.823201 0.0614,-0.541487 0.0302,-0.750418 -0.20646,-1.380092 -0.15337,-0.4081 -0.37073,-1.048948 -0.48303,-1.424101 -0.39816,-1.330231 -0.76801,-2.193108 -1.23951,-2.891815 -0.47371,-0.702001 -0.48512,-0.710331 -1.44834,-1.057675 -1.09531,-0.394964 -1.43716,-0.400457 -2.00299,-0.03218 -0.52862,0.344074 -0.74269,0.792108 -0.75377,1.577601 -0.0159,1.115782 0.78505,2.289958 1.56177,2.289958 0.41724,0 1.13534,-0.335258 1.29922,-0.606562 0.16507,-0.27328 0.27619,-1.220456 0.16327,-1.391626 -0.12603,-0.190985 -0.79769,-0.331395 -1.01189,-0.211529 -0.12403,0.06942 -0.17341,0.24672 -0.17341,0.622585 0,0.642083 -0.19424,0.698541 -0.53064,0.154228 -0.1738,-0.281214 -0.21129,-0.455065 -0.15456,-0.716584 0.0986,-0.45398 0.19045,-0.500977 0.98413,-0.502903 0.78379,-0.0019 1.01824,0.09956 1.24546,0.538951 0.14085,0.272416 0.14733,0.414869 0.0419,0.925759 -0.16129,0.782769 -0.33968,1.117894 -0.76356,1.434459 -0.69216,0.516904 -1.70367,0.576653 -2.19741,0.129802 -0.31201,-0.28236 -0.91299,-1.521911 -1.12195,-2.314009 -0.10403,-0.394124 -0.21824,-0.716585 -0.2539,-0.716585 -0.13282,0 -0.35516,0.477246 -0.58787,1.261839 -0.33099,1.115916 -0.42571,2.928624 -0.21322,4.080666 0.37264,2.020414 0.23217,1.754427 1.6495,3.123276 1.30895,1.264182 1.60345,1.495097 2.16738,1.699579 0.42278,0.153285 0.53863,0.154305 1.02356,0.0089 z"
       id="path100" /><g
       id="g1"
       transform="matrix(0.8829111,0,0,0.8829111,12.36717,1.0913961)"><path
         id="path1"
         style="fill:#e6e6e6;fill-opacity:1;stroke-width:0.275664"
         d="m 32.803683,9.3229451 c -0.480904,0.011153 -1.043937,0.072142 -1.544091,0.1803508 -0.723464,0.1565153 -0.773782,0.1585302 -1.422136,0.050126 -0.889105,-0.1486578 -1.824509,-0.2172844 -2.771924,-0.2077392 -1.579023,0.015911 -3.191308,0.2483645 -4.677233,0.6872963 -3.183641,0.940426 -5.180791,2.586031 -5.261178,4.334619 -0.03154,0.685961 0.111233,1.068364 0.564307,1.511019 0.560718,0.54783 1.507946,0.90267 2.397269,0.898654 0.645447,-0.0029 0.730716,-0.180892 0.118856,-0.248047 -0.615522,-0.06756 -1.434124,-0.290022 -1.727026,-0.469222 -0.715645,-0.437841 -0.881221,-1.634952 -0.373621,-2.696993 0.254877,-0.533274 1.083399,-1.358414 1.771985,-1.764751 1.208336,-0.713041 2.612679,-1.195533 4.439006,-1.524454 0.831604,-0.1497733 1.399759,-0.200072 2.668054,-0.2366784 2.139173,-0.061742 2.886849,0.029774 2.164209,0.2656174 -0.463972,0.151422 -2.05691,0.999258 -2.782776,1.481046 -1.204981,0.799797 -2.441248,2.137641 -2.987932,3.232878 -0.268578,0.538077 -0.492681,1.413344 -0.490409,1.916679 0.0054,1.201337 0.696182,2.059647 1.907377,2.370397 0.54383,0.139528 1.497357,0.159447 2.18798,0.04548 0.260557,-0.043 0.866437,-0.211162 1.346688,-0.373621 3.575272,-1.209459 6.065205,-4.090669 5.636865,-6.522599 -0.0894,-0.507609 -0.08785,-0.51567 0.14056,-0.984953 C 34.527787,10.406596 34.437659,9.7581785 33.854782,9.4433551 33.683176,9.3506671 33.284589,9.3117965 32.803683,9.322949 Z m -0.208772,0.4702556 c 0.37862,-0.00226 0.570824,0.033367 0.74414,0.1379761 0.288072,0.1738682 0.445106,0.6099502 0.346232,0.9606652 -0.03619,0.128329 -0.09796,0.238939 -0.137459,0.245463 -0.03949,0.0065 -0.215919,-0.128679 -0.392224,-0.30024 -0.176306,-0.171559 -0.563047,-0.43506 -0.859379,-0.585494 -0.296332,-0.150435 -0.539215,-0.2944708 -0.539502,-0.3198775 -9.37e-4,-0.082892 0.317741,-0.1354038 0.838192,-0.1384928 z m -1.868103,0.3451983 0.527616,0.204122 c 0.290118,0.112313 0.724779,0.338059 0.966349,0.501778 0.427416,0.289668 0.929686,0.891037 0.930693,1.114144 2.75e-4,0.06086 -0.277296,0.378487 -0.617017,0.7059 -0.577466,0.556555 -0.729934,0.778097 -0.534334,0.777214 0.09784,-4.41e-4 0.940004,-0.598404 1.07642,-0.764295 0.05265,-0.06404 0.14573,-0.116512 0.206706,-0.116788 0.1502,-6.91e-4 0.0815,0.706604 -0.122473,1.259354 -0.604909,1.639278 -3.066646,3.627827 -5.520594,4.460193 -0.826692,0.280408 -0.984592,0.309916 -1.78542,0.336414 -0.48319,0.01599 -1.020749,-4.6e-4 -1.195276,-0.03669 -1.219956,-0.253285 -1.511199,-1.380022 -0.763778,-2.955891 0.522463,-1.101564 1.424536,-2.309257 2.27273,-3.042709 1.000261,-0.864947 2.693287,-1.82629 3.946529,-2.24069 z" /><path
         id="path17"
         style="fill:#e6e6e6;fill-opacity:1;stroke-width:0.275664"
         d="m 36.089787,14.659054 c -0.961185,0.01 -1.08088,0.02639 -1.42937,0.19482 -0.565417,0.273279 -0.837238,0.687494 -0.450102,0.685746 0.07786,-3.51e-4 0.141945,0.02944 0.14211,0.06615 6.91e-4,0.152927 -2.860913,4.260645 -3.775997,5.420341 -0.749616,0.950002 -2.388205,2.659469 -3.101102,3.234944 -1.0322,0.833223 -2.32845,1.2959 -3.427698,1.224215 -1.058534,-0.06903 -1.674433,-0.456631 -2.093413,-1.317749 -0.256795,-0.527788 -0.352802,-0.629852 -0.530716,-0.56689 -0.138713,0.04909 -0.108642,0.245412 0.100252,0.659908 0.325372,0.645621 1.153239,1.26217 2.014347,1.500683 0.542961,0.150395 1.885271,0.09049 2.600358,-0.116272 1.174939,-0.33973 1.930422,-0.829824 3.063896,-1.986442 0.900242,-0.918628 1.853913,-2.151059 2.711979,-3.505729 1.319672,-2.083428 2.364617,-3.639845 2.852022,-4.248319 0.617972,-0.771483 0.757829,-0.827889 2.099614,-0.843877 0.829112,-0.0099 0.991224,0.0087 1.292427,0.146245 0.260704,0.119022 0.355692,0.207096 0.390674,0.362768 0.02541,0.11312 0.05925,0.245249 0.07441,0.294039 0.04277,0.137524 -0.0873,0.187793 -0.957047,0.367936 -1.035788,0.214536 -2.393635,0.632643 -3.049943,0.939478 -0.796358,0.372302 -1.111086,0.868634 -0.766879,1.209745 0.425114,0.421297 1.70131,0.360871 3.058212,-0.145211 1.017525,-0.379504 1.767516,-0.969367 2.020548,-1.58905 0.124976,-0.306065 0.144578,-0.319946 0.567924,-0.401009 0.241081,-0.04616 0.775741,-0.10482 1.188041,-0.130225 0.732673,-0.04514 0.938233,-0.117172 0.734839,-0.256831 -0.100441,-0.06897 -1.735023,-0.01653 -2.114083,0.0677 -0.169693,0.03771 -0.209173,0.0049 -0.357084,-0.29714 -0.218412,-0.446037 -0.749466,-0.798188 -1.362707,-0.903821 -0.24555,-0.04229 -0.91854,-0.07215 -1.495516,-0.06615 z m 2.072741,1.887223 c 0.170208,0.005 -0.607826,0.645201 -1.099674,0.904854 -0.262001,0.138313 -0.706098,0.323127 -0.986503,0.410828 -0.280413,0.0877 -0.783811,0.180614 -1.118795,0.206189 -0.571664,0.04365 -0.607664,0.03757 -0.583427,-0.09302 0.03465,-0.186527 0.643435,-0.507671 1.546159,-0.815971 0.757808,-0.258807 2.072066,-0.617897 2.24224,-0.612882 z" /><path
         id="path13"
         style="fill:#e6e6e6;fill-opacity:1;stroke-width:0.275664"
         d="m 77.819539,11.96051 c -0.07381,-0.0012 -0.139435,0.0064 -0.187068,0.02481 -0.231962,0.08964 -0.529745,0.419726 -0.581877,0.644922 -0.05741,0.247985 -0.713977,0.822697 -0.941028,0.823722 -0.0915,4.13e-4 -0.755708,-0.146912 -1.475879,-0.327112 -3.100275,-0.775756 -4.066805,-0.962313 -5.71903,-1.104842 -0.35547,-0.03067 -0.723309,-0.03933 -1.088823,-0.02791 v 5.17e-4 c -1.096535,0.03429 -2.17193,0.248485 -2.828251,0.58601 -0.70084,0.360419 -1.762816,0.85441 -1.405082,1.414384 0.07877,0.123305 0.156502,0.202303 0.412895,-0.149861 0.763331,-1.048438 2.788495,-1.56125 5.160408,-1.30638 0.933912,0.10035 2.326612,0.333379 3.430798,0.574125 1.418053,0.309173 3.1028,0.737992 3.10317,0.789616 4.93e-4,0.09273 -1.943009,1.971748 -2.4691,2.386934 -1.285996,1.014901 -2.158207,1.541376 -2.960543,1.786454 -0.540352,0.165052 -0.751893,0.153752 -0.98857,-0.05219 -0.185131,-0.161092 -0.161354,-0.409702 0.121957,-1.278475 0.405504,-1.24348 0.330361,-1.685359 -0.284738,-1.673283 -0.516103,0.01014 -0.984583,0.307687 -2.479952,1.573548 -0.205743,0.174026 -0.261697,0.198149 -0.204121,0.0894 0.04364,-0.0825 0.133381,-0.194763 0.199471,-0.250114 0.210763,-0.176531 0.760562,-0.936953 0.870748,-1.204061 0.143178,-0.347058 0.07389,-0.562013 -0.305925,-0.949296 -0.459433,-0.468489 -0.81207,-0.435709 -0.455269,0.04237 0.135633,0.181734 0.149972,0.255881 0.09353,0.488859 -0.06013,0.248197 -0.103408,0.286831 -0.448551,0.403076 -0.567326,0.191071 -1.295103,0.289178 -1.989543,0.268201 l -0.617017,-0.0186 -0.04082,-0.294556 c -0.05415,-0.392077 -0.3118,-0.789326 -0.643372,-0.992187 -0.223602,-0.136803 -0.396329,-0.169188 -0.999939,-0.188102 -0.613848,-0.01924 -0.796705,0.0029 -1.150834,0.137976 -0.51488,0.196471 -0.668518,0.40062 -0.611332,0.81287 0.03802,0.273875 0.0199,0.315515 -0.249597,0.561206 -0.327484,0.298561 -0.833321,0.991339 -1.070219,1.466577 -0.309704,0.621286 -0.17943,1.27963 0.301274,1.523938 0.599993,0.304933 2.05917,-0.152005 3.12229,-0.977718 0.542541,-0.421387 0.827161,-0.755297 1.087272,-1.276408 l 0.21239,-0.425814 1.006657,-0.04444 c 0.553531,-0.02432 1.17873,-0.09409 1.389062,-0.15503 0.210332,-0.06094 0.38246,-0.08899 0.382406,-0.06253 -5.3e-5,0.02645 -0.258394,0.396917 -0.574125,0.823722 -0.616672,0.833599 -1.309346,1.994173 -1.308448,2.192631 3.01e-4,0.06698 0.05464,0.166669 0.120923,0.221175 0.106601,0.08766 0.188699,0.02621 0.709001,-0.530717 0.776599,-0.831274 2.280673,-2.21103 2.709395,-2.485636 0.187838,-0.120315 0.433219,-0.219117 0.545703,-0.219625 0.189782,-8.38e-4 0.204455,0.01995 0.205673,0.288871 4.93e-4,0.159414 -0.100901,0.545331 -0.225826,0.857829 -0.148122,0.370511 -0.228757,0.703516 -0.232544,0.957048 -0.005,0.349328 0.01826,0.410071 0.227893,0.595829 0.657686,0.582691 2.111835,0.226691 3.651973,-0.893485 0.332438,-0.241791 0.614927,-0.439711 0.627352,-0.439767 0.01243,-5.7e-5 -0.04682,0.139707 -0.131258,0.310575 -0.18911,0.382552 -0.198753,0.900831 -0.0217,1.168405 0.188557,0.284954 0.80529,0.446096 1.453141,0.379305 1.110197,-0.114461 2.25621,-0.576162 3.287655,-1.323951 0.31231,-0.226417 0.5788,-0.4118 0.592212,-0.411861 0.01341,-5.9e-5 -0.0014,0.116897 -0.03256,0.259416 -0.11798,0.53434 0.186608,1.020498 0.688846,1.099674 0.511313,0.08061 1.238701,-0.339311 2.225188,-1.283642 0.257999,-0.246982 0.478281,-0.439929 0.489375,-0.428915 0.01109,0.01101 -0.01816,0.207624 -0.06511,0.436666 -0.07057,0.344071 -0.06648,0.468921 0.02274,0.717786 0.17136,0.478172 0.409894,0.605601 1.117761,0.596863 0.523474,-0.0064 0.662467,-0.0389 1.142049,-0.266134 0.600911,-0.284731 1.620725,-0.906583 2.051038,-1.25057 0.292887,-0.234132 0.335758,-0.212936 0.167948,0.08372 -0.240793,0.425673 -0.06576,1.070604 0.347782,1.282093 0.531919,0.272028 1.30424,-0.08718 2.363164,-1.098641 l 0.624251,-0.596346 -0.05994,0.327111 c -0.245775,1.338218 0.483215,1.827151 1.996778,1.340487 1.019716,-0.327879 2.68133,-1.42066 3.608565,-2.372982 l 0.42323,-0.434082 0.268201,0.09457 c 0.147611,0.05197 0.375009,0.09493 0.505395,0.09612 0.130377,0.0012 0.237117,0.01671 0.237195,0.03411 7.9e-5,0.01741 -0.172174,0.262908 -0.382922,0.545703 -1.100184,1.47628 -1.637692,2.857129 -1.463994,3.760494 0.05605,0.291496 0.40055,0.67474 0.648539,0.721403 0.952795,0.179283 1.952075,-0.255758 3.121257,-0.658358 3.482627,-1.199208 4.775157,-1.467157 7.199557,-1.259871 2.34953,0.463184 3.66844,0.915746 5.49218,1.471228 1.82371,0.555477 5.01384,0.522619 7.81967,-2.00763 0.78434,-0.70729 0.46977,-0.909124 -0.0971,-0.424263 -1.24218,1.062451 -2.10088,1.435399 -2.65255,1.671732 -1.12525,0.482068 -3.03499,0.890523 -5.50716,0.02481 -3.30074,-1.155886 -5.64544,-1.860454 -7.48636,-1.418518 -1.6592,0.398314 -3.131014,0.922857 -4.085541,1.266589 -0.898796,0.323665 -2.087821,0.717542 -2.396753,0.810804 -1.148962,0.34686 -1.541586,-0.06764 -1.490865,-0.550354 0.08412,-0.800609 0.836423,-2.204508 2.115633,-3.757394 0.342445,-0.4157 0.622509,-0.815415 0.622184,-0.887801 -3.5e-4,-0.07768 -0.09136,-0.168394 -0.221692,-0.221692 -0.203369,-0.08317 -0.266778,-0.06648 -0.806669,0.213424 -0.613572,0.318096 -0.959601,0.377213 -1.19786,0.204638 -0.127156,-0.09209 -0.130472,-0.119538 -0.03617,-0.297656 0.05712,-0.107908 0.423807,-0.554698 0.81442,-0.992704 0.390606,-0.438007 0.70979,-0.845949 0.709518,-0.906405 -9.85e-4,-0.173565 -0.2432,-0.263761 -0.504362,-0.187585 -0.945691,0.275849 -1.774077,1.513549 -1.505335,2.248958 0.04285,0.117171 0.02253,0.190844 -0.07286,0.270268 -1.858207,1.546669 -3.199668,2.378585 -4.28656,2.657719 -0.491734,0.126282 -0.529951,0.126833 -0.711068,0.0093 -0.278853,-0.180919 -0.249127,-0.475193 0.131258,-1.289327 0.344879,-0.738148 0.376166,-0.869456 0.236678,-1.007691 -0.191319,-0.189598 -0.416904,-0.06986 -1.289844,0.68523 -1.561427,1.350638 -2.217221,1.790349 -2.50734,1.680517 -0.3196,-0.120988 -0.02537,-0.742362 1.018026,-2.149223 0.949881,-1.280774 0.990554,-1.488854 0.411344,-2.079459 -0.464532,-0.474146 -0.846403,-0.415854 -0.460437,0.07028 0.142342,0.179282 0.148469,0.224869 0.06821,0.501778 -0.234058,0.807659 -0.750704,1.359189 -2.259294,2.413806 -1.595557,1.115419 -3.245748,1.618186 -3.279903,0.998906 -0.01746,-0.316614 0.02172,-0.460854 0.273368,-1.006141 0.32669,-0.707924 0.380385,-0.898861 0.296623,-1.046964 -0.150616,-0.266313 -0.403233,-0.130512 -1.492415,0.800985 -1.15942,0.991559 -1.659669,1.354299 -2.054655,1.490348 -0.319374,0.110006 -0.475746,-0.01018 -0.402043,-0.309542 0.05787,-0.235097 0.607855,-1.099487 1.192175,-1.874304 0.22991,-0.304878 0.486824,-0.667478 0.570508,-0.806152 0.163159,-0.270379 0.195931,-0.65105 0.07596,-0.872815 -0.06412,-0.118508 -0.02251,-0.162411 0.309025,-0.330213 0.497554,-0.251826 0.680238,-0.430259 0.820105,-0.801501 0.143578,-0.381115 0.115961,-1.024432 -0.04393,-1.02371 -0.07835,3.54e-4 -0.120059,0.108136 -0.146245,0.380338 -0.04659,0.485015 -0.229084,0.735953 -0.72657,0.996838 -0.326098,0.171038 -0.458035,0.200981 -0.743107,0.170533 -0.227214,-0.02427 -0.346469,-0.0093 -0.346232,0.04341 4.58e-4,0.101785 -2.316181,0.04293 -2.421558,-0.06149 -0.04615,-0.04576 0.173113,-0.247525 0.623218,-0.574125 0.72318,-0.524748 0.859968,-0.702285 0.678511,-0.882117 -0.10821,-0.107239 -0.403847,-0.189796 -0.625285,-0.19327 z m -1.317749,2.060856 1.008724,0.11989 c 0.554728,0.06604 1.296564,0.106997 1.648479,0.09095 l 0.639754,-0.02894 -0.03772,0.238746 c -0.05367,0.340457 -0.590936,1.291829 -0.903821,1.600419 -0.384869,0.379593 -1.644634,1.316902 -2.167309,1.612304 -0.24712,0.139663 -0.722013,0.356337 -1.05575,0.481625 v -5.17e-4 c -0.468158,0.175754 -0.768268,0.237351 -1.312065,0.268201 -0.690771,0.03919 -0.708693,0.03577 -0.902787,-0.15658 -0.271118,-0.268681 -0.2131,-0.582066 0.22841,-1.23455 0.373872,-0.552509 1.555401,-1.829414 2.351278,-2.541447 z m -14.118518,0.479558 c 0.289291,0.0011 0.542918,0.05057 0.674378,0.147794 0.225188,0.166557 0.322584,0.425862 0.268717,0.714685 -0.0319,0.17121 -0.06638,0.189594 -0.33693,0.181901 -0.391479,-0.01113 -0.551201,-0.03852 -1.229382,-0.214457 -0.855113,-0.22183 -0.944674,-0.452913 -0.266651,-0.68833 0.275451,-0.09564 0.600573,-0.142721 0.889868,-0.141593 z m -1.283642,1.227315 c 0.03392,4.32e-4 0.06967,0.0063 0.111621,0.01499 0.130766,0.02721 0.566146,0.06355 0.967383,0.08061 0.401224,0.01707 0.772903,0.04544 0.825789,0.06305 0.148141,0.04933 -0.305724,0.644005 -0.860413,1.127579 -0.552433,0.481604 -1.180436,0.881793 -1.726509,1.099675 -1.375803,0.548944 -1.38314,-0.45807 -0.01344,-1.843815 0.401422,-0.406129 0.529254,-0.525775 0.661975,-0.540536 0.01091,-0.0012 0.02246,-0.0017 0.03359,-0.0015 z" /><path
         style="fill:#e6e6e6;fill-opacity:1;stroke-width:0.275664"
         d="m 58.51579,13.934942 c -0.120653,-0.0097 -0.27729,0.03458 -0.484806,0.131117 -0.701971,0.326541 -1.755164,1.284467 -3.241514,2.948668 -0.504287,0.564637 -0.516959,0.523569 -0.122586,-0.400503 0.387017,-0.906845 0.560102,-1.509031 0.504731,-1.75582 -0.05942,-0.264837 -0.473307,-0.563361 -0.867104,-0.625444 -0.233664,-0.03684 -0.265614,-0.0239 -0.265013,0.108468 3.81e-4,0.08512 0.06254,0.169884 0.143053,0.195042 0.07828,0.02445 0.164152,0.11192 0.190708,0.194316 0.07011,0.217482 -0.0243,0.834461 -0.204188,1.334806 -0.149848,0.416745 -0.186009,0.454846 -0.883484,0.939363 -0.873026,0.606471 -1.706415,1.02164 -2.4134,1.20209 -0.995046,0.253977 -1.1256,-0.03745 -0.577336,-1.289234 0.178683,-0.407954 0.324709,-0.769564 0.324556,-0.80358 -1.54e-4,-0.03401 -0.08384,-0.116035 -0.186068,-0.182361 -0.257982,-0.167378 -0.331118,-0.12391 -1.62586,0.964882 -1.476668,1.241779 -2.204816,1.623644 -2.513012,1.318219 -0.169079,-0.167563 -0.143457,-0.36018 0.112372,-0.845428 0.36785,-0.697728 1.268459,-1.504287 2.183229,-1.955007 1.708447,-0.841771 2.610436,-0.898201 2.514431,-0.157097 -0.06835,0.527635 0.258184,0.371079 0.341205,-0.163595 0.05748,-0.370151 -0.122368,-0.78821 -0.397326,-0.923388 -0.240325,-0.118154 -0.965303,-0.111443 -1.422241,0.01305 -1.096141,0.298634 -2.17951,0.965975 -3.022962,1.861975 -0.556128,0.590778 -0.937909,1.279144 -0.93616,1.688716 0.0031,0.726637 0.690342,1.07614 1.527216,0.776618 0.443562,-0.158754 1.22297,-0.690616 1.772542,-1.209388 l 0.482575,-0.455725 -0.04028,0.611959 c -0.04709,0.713342 0.01031,0.865766 0.40309,1.070893 0.719964,0.376024 2.04095,-0.01198 3.405231,-1.000179 0.328205,-0.237726 0.537466,-0.351681 0.504282,-0.274914 -0.361534,0.836472 -0.38389,1.2987 -0.06691,1.376737 0.233875,0.05758 0.281732,0.02098 0.613225,-0.468799 0.341349,-0.504356 2.145405,-2.302341 2.948288,-2.938427 0.807823,-0.639996 1.160173,-0.839286 1.385123,-0.783906 0.217757,0.05361 0.303274,-0.09193 0.18383,-0.312706 -0.064,-0.118298 -0.148768,-0.181741 -0.269421,-0.191413 z"
         id="path14" /></g><path
       style="fill:#e6e6e6;fill-opacity:1;stroke-width:0.559083"
       d="m 16.142496,128.1413 c -1.744244,-0.49162 -3.417811,-1.75051 -4.071794,-3.06288 -0.419863,-0.84256 -0.478276,-1.24055 -0.196501,-1.33884 0.361408,-0.12607 0.554463,0.0822 1.07044,1.155 0.841854,1.75028 2.087025,2.54204 4.233219,2.69173 2.228743,0.15545 4.86182,-0.77192 6.962865,-2.45234 1.451107,-1.16061 4.790133,-4.61204 6.31914,-6.53189 1.866511,-2.34361 7.707858,-10.64876 7.707858,-10.95892 0,-0.0745 -0.12921,-0.13539 -0.28712,-0.13539 -0.78517,0 -0.22989,-0.83745 0.91934,-1.38651 0.70832,-0.33841 0.95126,-0.3704 2.90075,-0.38189 1.17022,-0.007 2.53482,0.0595 3.03243,0.14752 1.24276,0.21985 2.31629,0.93895 2.75517,1.84556 0.29721,0.61396 0.3765,0.68056 0.721,0.60563 0.76955,-0.16736 4.08598,-0.25797 4.28905,-0.11718 0.41123,0.28511 -0.007,0.4293 -1.49366,0.51415 -0.83642,0.0477 -1.92115,0.16163 -2.41052,0.25304 -0.85933,0.16053 -0.89881,0.18813 -1.15508,0.80772 -0.51885,1.25447 -2.04549,2.44393 -4.11261,3.20429 -2.75659,1.01397 -5.3455,1.12544 -6.20382,0.26711 -0.69497,-0.69497 -0.0523,-1.69904 1.56621,-2.44682 1.33387,-0.61629 4.09178,-1.45244 6.19444,-1.87806 1.76559,-0.35739 2.02936,-0.45735 1.94388,-0.73665 -0.0303,-0.0991 -0.0965,-0.36807 -0.14699,-0.59772 -0.0695,-0.31604 -0.26131,-0.49585 -0.78896,-0.73962 -0.60961,-0.28165 -0.93851,-0.32029 -2.62014,-0.30785 -2.72143,0.0201 -3.00626,0.1331 -4.26664,1.69209 -0.99408,1.22959 -3.12749,4.37682 -5.82301,8.59016 -1.752662,2.73957 -3.697819,5.23112 -5.532023,7.08596 -2.309404,2.33537 -3.846394,3.32185 -6.232414,4.00011 -1.452171,0.4128 -4.174704,0.52248 -5.27451,0.21249 z m 25.501447,-15.90627 c 0.5695,-0.1753 1.47126,-0.54627 2.00389,-0.82439 0.9999,-0.5221 2.5839,-1.81357 2.23875,-1.8253 -0.34509,-0.0117 -3.01399,0.70526 -4.55328,1.22321 -1.83365,0.617 -3.07048,1.26277 -3.14246,1.64075 -0.0504,0.26462 0.0222,0.27647 1.18196,0.19318 0.67962,-0.0488 1.70163,-0.23215 2.27114,-0.40745 z m 119.634867,6.41074 c -0.50253,-0.0969 -1.19818,-0.8777 -1.30919,-1.4694 -0.34401,-1.83372 0.75899,-4.62935 3.00381,-7.61335 0.43002,-0.57161 0.78185,-1.06818 0.78185,-1.10349 0,-0.0353 -0.21634,-0.0671 -0.48075,-0.0707 -0.26442,-0.004 -0.72531,-0.0938 -1.02421,-0.20059 l -0.54344,-0.19408 -0.86184,0.87719 c -1.88926,1.92293 -5.27003,4.12412 -7.34114,4.77976 -3.07414,0.97315 -4.5474,-0.0261 -4.03668,-2.73792 l 0.12478,-0.6625 -1.27193,1.20399 c -2.15688,2.04166 -3.72666,2.76271 -4.80296,2.20613 -0.83677,-0.43271 -1.18535,-1.74175 -0.69309,-2.60286 0.34305,-0.6001 0.2564,-0.6439 -0.33976,-0.17173 -0.87587,0.69371 -2.95061,1.94582 -4.17193,2.51779 -0.97473,0.45648 -1.25615,0.5207 -2.31787,0.52901 -1.43572,0.0112 -1.9189,-0.24956 -2.26205,-1.22092 -0.17858,-0.50555 -0.18539,-0.75853 -0.0391,-1.4557 0.0973,-0.4641 0.15863,-0.86218 0.13619,-0.88462 -0.0224,-0.0224 -0.47079,0.36709 -0.99631,0.86564 -2.00935,1.90618 -3.48927,2.75072 -4.52553,2.58256 -1.01788,-0.16518 -1.63125,-1.15438 -1.38707,-2.23701 0.0651,-0.28876 0.0962,-0.52502 0.069,-0.52502 -0.0272,0 -0.56933,0.37338 -1.2048,0.82972 -2.09874,1.50716 -4.42729,2.43245 -6.67994,2.65443 -1.31454,0.12953 -2.56345,-0.20226 -2.94325,-0.78191 -0.35663,-0.54429 -0.33244,-1.59528 0.0546,-2.36941 0.17284,-0.34577 0.29361,-0.62868 0.26839,-0.62868 -0.0252,0 -0.59934,0.39873 -1.27578,0.88607 -3.13383,2.25775 -6.08659,2.96575 -7.41512,1.77796 -0.42352,-0.37865 -0.46986,-0.50147 -0.4565,-1.2099 0.01,-0.51416 0.17695,-1.18865 0.48076,-1.93873 0.25623,-0.63264 0.46588,-1.41479 0.46588,-1.73811 0,-0.54542 -0.0299,-0.58784 -0.41481,-0.58784 -0.22814,0 -0.72739,0.19824 -1.10945,0.44053 -0.87201,0.553 -3.93483,3.33778 -5.51748,5.01659 -1.06033,1.12474 -1.22688,1.24824 -1.442267,1.06948 -0.13393,-0.11115 -0.24351,-0.31323 -0.24351,-0.44906 0,-0.4025 1.415047,-2.75 2.673357,-4.43499 0.64426,-0.86273 1.17167,-1.61249 1.17203,-1.66615 3.5e-4,-0.0537 -0.34883,0.002 -0.77596,0.12366 -0.42713,0.12167 -1.69528,0.25741 -2.818127,0.30166 l -2.04152,0.0804 -0.4351,0.86194 c -0.53231,1.05449 -1.11235,1.72941 -2.21655,2.57907 -2.16368,1.66491 -5.12826,2.57855 -6.34233,1.95462 -0.97268,-0.49989 -1.23037,-1.83599 -0.59657,-3.09319 0.48481,-0.96168 1.51652,-2.36286 2.18343,-2.96538 0.54882,-0.49582 0.58676,-0.57995 0.51221,-1.13575 -0.1122,-0.83661 0.2012,-1.24953 1.24724,-1.64328 0.71945,-0.27082 1.09025,-0.31351 2.33503,-0.26887 1.22403,0.0439 1.57427,0.11147 2.02651,0.39097 0.67061,0.41446 1.1892,1.22231 1.29542,2.01799 l 0.0798,0.59782 1.25196,0.0435 c 1.408207,0.0489 2.884727,-0.14337 4.037067,-0.52569 0.70106,-0.23259 0.78911,-0.31105 0.91332,-0.81388 0.1166,-0.47199 0.0885,-0.62268 -0.18491,-0.9925 -0.71926,-0.97287 -0.004,-1.03648 0.92349,-0.0821 0.76674,0.78893 0.9055,1.22627 0.61194,1.92883 -0.22592,0.54071 -1.34819,2.07733 -1.77726,2.43342 -0.13454,0.11166 -0.3177,0.33958 -0.40703,0.5065 -0.11776,0.22003 -0.004,0.17033 0.41487,-0.18074 3.04438,-2.55362 3.9976,-3.15228 5.04441,-3.1681 1.2476,-0.0189 1.3961,0.87808 0.5623,3.39629 -0.58254,1.75938 -0.63286,2.26304 -0.25887,2.59145 0.47812,0.41985 0.90672,0.44435 2.00413,0.11455 1.62947,-0.4897 3.40332,-1.54904 6.02075,-3.5956 1.07077,-0.83723 5.02968,-4.6299 5.02916,-4.81798 -2.8e-4,-0.1047 -3.41338,-0.9893 -6.28652,-1.62933 -2.23723,-0.49837 -5.05926,-0.98377 -6.95242,-1.19585 -4.80818,-0.53862 -8.920227,0.48246 -10.477957,2.60182 -0.52322,0.71189 -0.67961,0.55068 -0.83824,0.29988 -0.7204,-1.13897 1.43704,-2.13143 2.861717,-2.85599 1.77892,-0.90471 5.06689,-1.3582 7.94947,-1.09642 3.3496,0.30419 5.30864,0.6919 11.58927,2.29361 1.45893,0.37206 2.80442,0.67647 2.98999,0.67647 0.4605,0 1.79734,-1.15962 1.91604,-1.66204 0.10779,-0.45625 0.71494,-1.12301 1.18621,-1.30269 0.3871,-0.14758 1.35457,0.0574 1.64588,0.34868 0.36637,0.36638 0.0879,0.72526 -1.38361,1.78288 -0.91585,0.65827 -1.36274,1.06653 -1.2695,1.15977 0.21276,0.21278 4.9099,0.35267 4.9099,0.14624 0,-0.10688 0.24206,-0.13609 0.70265,-0.0848 0.57789,0.0644 0.84574,0.004 1.50867,-0.3398 1.01136,-0.52455 1.38437,-1.03112 1.48326,-2.01436 0.0556,-0.55181 0.14046,-0.77048 0.29938,-0.77048 0.32422,0 0.37419,1.30539 0.0795,2.07702 -0.28706,0.75164 -0.6591,1.11204 -1.67052,1.61821 -0.67393,0.33729 -0.75762,0.42607 -0.62867,0.667 0.24129,0.45087 0.17013,1.222 -0.16325,1.76886 -0.17099,0.28049 -0.6947,1.01416 -1.16378,1.63038 -1.19216,1.56607 -2.31498,3.31435 -2.43451,3.79062 -0.15222,0.60648 0.16291,0.85165 0.81165,0.63147 0.80232,-0.27231 1.82023,-1.00374 4.18075,-3.00412 2.21753,-1.87921 2.73201,-2.15226 3.03504,-1.61076 0.16852,0.30113 0.0569,0.68759 -0.61215,2.12035 -0.51539,1.1036 -0.59608,1.39533 -0.56356,2.03762 0.0636,1.25629 3.41547,0.25238 6.66167,-1.99522 3.06925,-2.12507 4.12143,-3.23936 4.60352,-4.87524 0.16529,-0.56087 0.15311,-0.65353 -0.13393,-1.01844 -0.77833,-0.98948 -0.002,-1.1036 0.93578,-0.13773 1.1693,1.20312 1.08374,1.62505 -0.85446,4.21392 -2.12901,2.84372 -2.73128,4.10036 -2.08421,4.34867 0.5874,0.2254 1.92162,-0.66 5.10075,-3.38496 1.77733,-1.52342 2.2354,-1.76417 2.62168,-1.3779 0.28163,0.28164 0.21805,0.54747 -0.48816,2.04136 -0.77891,1.64767 -0.84248,2.2441 -0.27859,2.61358 0.36625,0.23997 0.44382,0.23931 1.44227,-0.0123 2.2069,-0.55617 4.93564,-2.23083 8.71846,-5.35064 0.19425,-0.16021 0.23492,-0.30949 0.14915,-0.54752 -0.53831,-1.49396 1.15314,-3.99621 3.07364,-4.54701 0.53036,-0.1521 1.02183,0.0332 1.02183,0.38518 0,0.12262 -0.65146,0.94682 -1.44767,1.83157 -0.79622,0.88475 -1.54328,1.78727 -1.66013,2.00559 -0.19286,0.36038 -0.18635,0.41604 0.0707,0.60398 0.48163,0.35218 1.18336,0.23555 2.43068,-0.40397 1.09752,-0.56272 1.22697,-0.59636 1.63866,-0.42583 0.26386,0.10929 0.44702,0.29454 0.44702,0.45209 0,0.14681 -0.57135,0.95417 -1.26967,1.79412 -2.60861,3.13772 -4.22155,5.97253 -4.32531,7.6019 -0.0537,0.84313 -0.0297,0.92738 0.34787,1.22441 0.48972,0.38521 1.18929,0.40986 2.29693,0.0809 0.80478,-0.23899 2.77516,-1.19684 3.94867,-1.91953 0.98339,-0.60562 0.80759,-0.073 -0.27266,0.82596 -1.92769,1.60425 -4.23005,2.33934 -6.16078,1.96701 z m -39.41069,-5.49256 c 0.678,-0.25104 1.64382,-0.68634 2.14628,-0.96733 1.06276,-0.59433 3.62609,-2.4829 4.41013,-3.24924 0.63739,-0.62299 1.73618,-2.54824 1.84815,-3.23824 l 0.0785,-0.4835 -1.29794,0.0533 c -0.71387,0.0293 -2.21796,-0.0604 -3.3424,-0.19945 l -2.04447,-0.25274 -1.02424,0.90806 c -1.62064,1.4368 -4.02842,4.01628 -4.79173,5.13342 -0.90141,1.31927 -1.02182,1.95419 -0.47442,2.50159 0.39188,0.39189 0.42833,0.39837 1.82965,0.32521 1.10316,-0.0576 1.71144,-0.17892 2.66253,-0.53108 z m -30.859997,-0.18436 c 1.10949,-0.43689 2.38628,-1.24182 3.51109,-2.2135 1.12941,-0.97567 2.0555,-2.17827 1.75551,-2.27969 -0.1071,-0.0362 -0.86038,-0.0972 -1.67396,-0.13544 -0.81359,-0.0383 -1.69603,-0.11574 -1.96099,-0.17212 -0.45332,-0.0965 -0.55022,-0.0339 -1.64205,1.06085 -2.79059,2.79791 -2.78491,4.84063 0.0104,3.7399 z m 5.92488,-5.55187 c 0.11189,-0.58528 -0.0838,-1.11253 -0.53898,-1.45239 -0.53145,-0.39678 -2.05305,-0.40958 -3.1721,-0.0267 -1.37727,0.47124 -1.19794,0.94054 0.53429,1.39827 1.37381,0.36301 1.69759,0.42114 2.49145,0.4473 0.54864,0.0181 0.61902,-0.0196 0.68534,-0.3665 z m -81.397681,7.21862 c -2.453596,-0.64133 -3.846026,-2.38802 -3.846026,-4.82452 0,-1.02084 0.462164,-2.79476 1.011801,-3.88359 1.118764,-2.21626 3.638596,-4.91776 6.08976,-6.528807 1.476552,-0.970478 4.714517,-2.674956 5.656892,-2.977813 1.467756,-0.4717 -0.04702,-0.664817 -4.386076,-0.559184 -2.572582,0.06263 -3.725937,0.159749 -5.413895,0.455891 -3.707009,0.650372 -6.55959,1.615444 -9.016763,3.050511 -1.400253,0.817792 -3.088436,2.483962 -3.610239,3.563172 -1.03919704,2.14929 -0.71339,4.57872 0.73401,5.47327 0.592401,0.36612 2.250566,0.82458 3.498298,0.96723 1.240308,0.1418 1.065268,0.5028 -0.243797,0.5028 -1.803687,0 -3.721331,-0.72907 -4.853516,-1.84526 -0.91483104,-0.90191 -1.20106704,-1.67896 -1.13082904,-3.06988 0.179045,-3.5456 4.24435704,-6.864043 10.70975704,-8.742187 4.828236,-1.40256 10.307162,-1.730658 15.112084,-0.90496 1.31394,0.225793 1.415821,0.222678 2.88452,-0.08813 2.030722,-0.429757 4.56972,-0.476937 5.2641,-0.09783 1.17925,0.643834 1.35612,1.958933 0.4979,3.702224 -0.46753,0.949669 -0.47003,0.966697 -0.29335,1.997003 0.84645,4.93616 -4.229646,10.75651 -11.491779,13.1767 -0.975494,0.32509 -2.206296,0.66047 -2.735129,0.74529 -1.401706,0.22482 -3.336053,0.17603 -4.437723,-0.11193 z m 5.775978,-1.64466 c 4.984508,-1.66567 9.994298,-5.67647 11.236129,-8.99557 0.418744,-1.11917 0.564874,-2.55249 0.260246,-2.55249 -0.123671,0 -0.31271,0.10587 -0.420089,0.23526 -0.278186,0.33519 -1.991132,1.53983 -2.189575,1.53983 -0.396707,0 -0.08583,-0.44801 1.090435,-1.57148 0.691988,-0.66093 1.258154,-1.30268 1.258154,-1.42611 0,-0.452498 -1.013225,-1.676414 -1.877417,-2.267808 -0.488437,-0.334253 -1.368628,-0.796277 -1.955991,-1.026718 l -1.067922,-0.418985 -1.242789,0.404733 c -2.545513,0.828977 -5.987663,2.76265 -8.024225,4.507708 -1.726948,1.47975 -3.567976,3.92143 -4.637675,6.15074 -1.530287,3.1892 -0.950301,5.47689 1.521592,6.00176 0.353627,0.0751 1.44487,0.11361 2.424979,0.0856 1.624416,-0.0464 1.944954,-0.10536 3.624148,-0.66649 z M 33.639223,98.062584 c 0.20373,-0.710385 -0.11124,-1.596226 -0.69389,-1.951488 -0.350549,-0.213746 -0.740256,-0.287842 -1.508163,-0.286755 -1.055561,0.0015 -1.701632,0.105425 -1.700495,0.273548 3.49e-4,0.05153 0.491231,0.345537 1.090848,0.65335 0.599618,0.307812 1.381476,0.845661 1.737472,1.195217 0.355998,0.349557 0.712838,0.625022 0.792978,0.612144 0.0802,-0.01287 0.2067,-0.236085 0.28125,-0.496016 z m 35.85599,15.650276 c -0.79466,-0.41962 -0.90968,-0.7295 -0.80761,-2.1758 l 0.0875,-1.24062 -0.98296,0.91951 c -1.11935,1.0471 -2.70531,2.1186 -3.60636,2.43651 -1.70002,0.5998 -3.0901,-0.11495 -3.08975,-1.58868 2e-4,-0.83067 0.78032,-2.2235 1.91362,-3.41657 1.71882,-1.80947 3.92229,-3.15294 6.14812,-3.74856 0.92786,-0.2483 2.39819,-0.25501 2.88451,-0.0132 0.55641,0.27667 0.91742,1.12606 0.79746,1.87624 -0.17327,1.08362 -0.83694,1.39823 -0.69349,0.32875 0.20149,-1.50216 -1.62826,-1.39621 -5.10088,0.29535 -1.85938,0.90574 -3.69351,2.53314 -4.44594,3.94484 -0.52329,0.98179 -0.57698,1.37232 -0.2356,1.71371 0.62226,0.62226 2.10234,-0.14571 5.10856,-2.65066 2.63584,-2.19633 2.78479,-2.28382 3.30648,-1.942 0.20673,0.13546 0.37587,0.30273 0.37587,0.37172 0,0.069 -0.29954,0.80104 -0.66566,1.62678 -1.1234,2.53375 -0.86133,3.12619 1.15906,2.62021 1.43549,-0.3595 3.12968,-1.19377 4.90583,-2.41577 1.41899,-0.97627 1.49231,-1.05356 1.80004,-1.89739 0.36946,-1.01311 0.5665,-2.26344 0.4263,-2.70516 -0.0531,-0.16735 -0.2263,-0.34545 -0.38485,-0.39577 -0.16306,-0.0518 -0.28828,-0.22409 -0.28828,-0.39673 0,-0.26847 0.0649,-0.29471 0.53846,-0.21786 0.79811,0.12952 1.63493,0.73889 1.75302,1.27656 0.11004,0.50102 -0.24654,1.72063 -1.03976,3.55627 -0.80829,1.87051 -0.78313,1.95411 0.24479,0.81358 3.02973,-3.36158 5.17453,-5.29511 6.6012,-5.95095 0.84349,-0.38775 1.27146,-0.35149 1.52889,0.12952 0.24022,0.44885 0.0654,0.743 -0.37574,0.63228 -0.45572,-0.11438 -1.17195,0.28679 -2.81617,1.57738 -1.63416,1.2827 -5.30925,4.91264 -6.00617,5.9324 -0.67679,0.9903 -0.77447,1.06429 -1.24827,0.94537 -0.64215,-0.16117 -0.59223,-1.09887 0.14866,-2.79202 0.068,-0.15539 -0.35758,0.0743 -1.02539,0.55344 -2.77596,1.99167 -5.45881,2.76651 -6.91554,1.9973 z"
       id="path1-3"
       sodipodi:nodetypes="sssssssssssssssssssssscsssssssssssscsssssssscssscssssssscsssssssscssscssssssssssscsssssssssscsssssssscsssssssssasssssssssssccsssssssssscsssscssssssssssssssssssssssssscssccsscssssccsssssssssssssssssssssssssssssscssssssssssssssscssssssssssssssscccsssssssssssssscssssssssscsssssssscc" /></g></svg>
