<?xml version="1.0" encoding="UTF-8" standalone="no"?>
<!-- Created with Inkscape (http://www.inkscape.org/) -->

<svg
   width="150"
   height="160"
   viewBox="0 0 39.687495 42.333328"
   version="1.1"
   id="svg1"
   xml:space="preserve"
   sodipodi:docname="favicon.svg"
   inkscape:export-filename="mus.png"
   inkscape:export-xdpi="96"
   inkscape:export-ydpi="96"
   inkscape:version="1.3.2 (091e20e, 2023-11-25, custom)"
   xmlns:inkscape="http://www.inkscape.org/namespaces/inkscape"
   xmlns:sodipodi="http://sodipodi.sourceforge.net/DTD/sodipodi-0.dtd"
   xmlns:xlink="http://www.w3.org/1999/xlink"
   xmlns="http://www.w3.org/2000/svg"
   xmlns:svg="http://www.w3.org/2000/svg"><sodipodi:namedview
     id="namedview1"
     pagecolor="#ffffff"
     bordercolor="#000000"
     borderopacity="0.25"
     inkscape:showpageshadow="2"
     inkscape:pageopacity="0.0"
     inkscape:pagecheckerboard="0"
     inkscape:deskcolor="#d1d1d1"
     inkscape:document-units="mm"
     inkscape:zoom="2.1273569"
     inkscape:cx="75.680766"
     inkscape:cy="108.35041"
     inkscape:window-width="1920"
     inkscape:window-height="1009"
     inkscape:window-x="1912"
     inkscape:window-y="-8"
     inkscape:window-maximized="1"
     inkscape:current-layer="layer1"
     showguides="false" /><defs
     id="defs1"><linearGradient
       id="linearGradient30"
       inkscape:collect="always"><stop
         style="stop-color:#846d4e;stop-opacity:0.35992578;"
         offset="0"
         id="stop31" /><stop
         style="stop-color:#60513c;stop-opacity:1;"
         offset="1"
         id="stop30" /></linearGradient><linearGradient
       id="linearGradient25"
       inkscape:collect="always"><stop
         style="stop-color:#61544c;stop-opacity:1;"
         offset="0.12328768"
         id="stop25" /><stop
         style="stop-color:#795642;stop-opacity:0.95294118;"
         offset="0.52602738"
         id="stop29" /><stop
         style="stop-color:#795642;stop-opacity:0;"
         offset="1"
         id="stop26" /></linearGradient><linearGradient
       id="linearGradient20"
       inkscape:collect="always"><stop
         style="stop-color:#dcd3c3;stop-opacity:1;"
         offset="0"
         id="stop21" /><stop
         style="stop-color:#daceb8;stop-opacity:1;"
         offset="0.339726"
         id="stop22" /><stop
         style="stop-color:#d0bd9c;stop-opacity:1;"
         offset="0.53972602"
         id="stop23" /><stop
         style="stop-color:#956e2d;stop-opacity:1;"
         offset="0.91780818"
         id="stop24" /><stop
         style="stop-color:#664919;stop-opacity:1;"
         offset="1"
         id="stop20" /></linearGradient><filter
       style="color-interpolation-filters:sRGB"
       inkscape:label="Blur"
       id="filter72"
       x="-0.37674153"
       y="-0.60643208"
       width="1.7534831"
       height="2.2128642"><feGaussianBlur
         stdDeviation="2 2"
         result="fbSourceGraphic"
         id="feGaussianBlur72" /><feColorMatrix
         result="fbSourceGraphicAlpha"
         in="fbSourceGraphic"
         values="0 0 0 -1 0 0 0 0 -1 0 0 0 0 -1 0 0 0 0 1 0"
         id="feColorMatrix72" /><feGaussianBlur
         id="feGaussianBlur73"
         stdDeviation="0.01 0.01"
         result="blur"
         in="fbSourceGraphic" /></filter><radialGradient
       inkscape:collect="always"
       xlink:href="#linearGradient20"
       id="radialGradient21-4"
       cx="-258.22559"
       cy="61.93824"
       fx="-258.22559"
       fy="61.93824"
       r="8.3749228"
       gradientTransform="matrix(-2.25296,2.8366519,-2.1643153,-2.0504419,-428.22167,883.82006)"
       gradientUnits="userSpaceOnUse" /><radialGradient
       inkscape:collect="always"
       xlink:href="#linearGradient25"
       id="radialGradient26-5"
       cx="-254.74817"
       cy="87.465736"
       fx="-254.74817"
       fy="87.465736"
       r="6.1110849"
       gradientTransform="matrix(-3.8931629,-0.58869408,0.41236303,-3.2529102,-995.76014,147.74611)"
       gradientUnits="userSpaceOnUse" /><linearGradient
       inkscape:collect="always"
       xlink:href="#linearGradient30"
       id="linearGradient34"
       gradientUnits="userSpaceOnUse"
       gradientTransform="matrix(2.1866549,0,0,2.2703374,499.81307,-184.85544)"
       x1="-214.84464"
       y1="88.186699"
       x2="-210.03607"
       y2="88.186699" /></defs><g
     inkscape:label="Layer 1"
     inkscape:groupmode="layer"
     id="layer1"><path
       style="fill:#e4dac7;fill-opacity:1;stroke:#fff7f7;stroke-width:0;stroke-dasharray:none"
       d="m -305.93012,89.05025 c -1.55465,-0.684045 -3.5446,-0.932788 -4.91269,-1.243718 -1.36809,-0.310931 -2.42525,-0.373116 -4.04208,1.057161 -1.61684,1.430276 0.62186,1.927762 0.18655,2.487435 -0.4353,0.559673 -3.9799,2.176507 -3.79334,3.917714 0.18656,1.741207 -3.17148,8.332918 -1.67902,8.084168 1.49246,-0.24874 2.36307,-2.79836 3.85553,-3.29585 1.49246,-0.497488 2.42525,1.43027 2.98493,2.30088 0.55967,0.8706 1.67902,4.4152 3.48241,4.91269 1.80339,0.49748 2.11432,0 3.10929,-1.11935 0.99498,-1.11935 4.10428,-9.576634 4.22865,-11.255653 0.12437,-1.679019 -0.18656,-5.223618 -3.42023,-5.845477 z"
       id="path14" /><g
       id="g6"
       transform="translate(0.12243906,-0.06565773)"><g
         id="g5"
         transform="matrix(0.98835578,0,0,1.1133763,-0.49218181,-1.5881417)"><path
           style="fill:url(#radialGradient21-4);stroke:#fff7f7;stroke-width:0;stroke-dasharray:none"
           d="M 15.923183,1.8469894 C 24.47854,0.83249745 28.582432,2.9835203 32.932256,6.8362712 36.25205,9.7766983 36.654757,19.539548 36.924713,21.030143 39.211604,33.657491 31.862694,39.539079 18.345297,39.394879 4.8278992,39.250678 0.39823325,32.813783 0.45620524,22.865724 0.51417712,12.917665 4.5274331,4.3632732 15.923183,1.8469894 Z"
           id="path19-4"
           sodipodi:nodetypes="ssszzs" /><path
           style="fill:url(#radialGradient26-5);stroke:#fff7f7;stroke-width:0;stroke-dasharray:none"
           d="M 31.157239,8.4763024 C 29.818071,9.8317189 31.237419,11.366085 28.359791,11.213063 26.792968,11.129763 26.098796,10.36052 24.159922,8.5505422 21.675695,6.231423 16.511918,5.0160377 12.287827,7.657155 c -11.1380227,6.964085 -5.2485344,13.27381 5.594974,9.968807 5.945853,-1.812237 7.293032,0.999046 7.812571,6.795909 0.290154,3.237588 7.188316,11.101058 9.38447,8.611228 2.301315,-2.609054 3.522474,-12.369997 0.475409,-20.287415 -0.771202,-2.003873 -3.827714,-4.8465985 -4.398012,-4.2693816 z"
           id="path25-7"
           sodipodi:nodetypes="sssssssss" /></g><ellipse
         style="fill:#977c2f;fill-opacity:1;stroke-width:0"
         id="path22-5-6-9-2-9-1"
         cx="-18.515867"
         cy="12.686604"
         rx="5.5515661"
         ry="5.4375992"
         transform="matrix(-0.29249712,-0.9562664,0.87795626,-0.47874085,0,0)" /><g
         id="g26-3-8-4"
         transform="matrix(-0.25765206,-1.8800344,1.47939,-0.37433533,-51.460302,260.42826)"><ellipse
           style="fill:#501616;fill-opacity:1;stroke-width:0"
           id="path22-51-9-5"
           cx="102.35927"
           cy="90.666107"
           rx="2.3213766"
           ry="2.695792"
           transform="rotate(-12.250295)" /></g><ellipse
         style="fill:#f9f9f9;fill-opacity:1;stroke-width:0"
         id="path23-9-7-5-7"
         cx="-12.685997"
         cy="13.953417"
         transform="matrix(-0.14871442,-0.98888019,0.9744299,-0.22469174,0,0)"
         rx="2.0987177"
         ry="1.8391005" /><g
         id="g3"
         transform="matrix(1.0298484,0,0,1.1699414,-3.4667729,0.33832316)"><path
           style="fill:#c3a887;fill-opacity:1;stroke:#fff7f7;stroke-width:0;stroke-dasharray:none"
           d="m 31.847994,7.3468674 c -0.523531,5.1132106 -6.116789,2.4477208 -3.882669,7.7128926 0.862338,2.032281 4.487301,2.964834 7.342876,2.117748 2.855552,-0.847107 5.167197,-3.388409 6.119069,-3.388409 0.951851,0 -0.603401,-3.088059 -3.562589,-5.2706951 -3.1316,-2.3098032 -5.812105,-3.1696409 -6.016687,-1.1715365 z"
           id="path29-27"
           sodipodi:nodetypes="ssssss" /><path
           style="fill:url(#linearGradient34);stroke:#fff7f7;stroke-width:0;stroke-dasharray:none"
           d="m 39.727519,13.718513 c -1.281381,0.461538 -4.047768,0.06851 -5.670891,-0.499884 -3.597736,-1.259885 -6.568725,0.988993 -5.015172,2.745504 0.931166,1.052801 2.945501,1.733193 4.033317,1.521416 1.087839,-0.211824 2.863185,0.251212 6.244803,-2.566981 0.405012,-0.337531 1.091315,-0.599846 1.299682,-0.88727 0.262093,-0.361506 0.445749,-0.794528 -0.891739,-0.312785 z"
           id="path30-9"
           sodipodi:nodetypes="sssssss" /></g></g></g></svg>
