<?xml version="1.0" encoding="UTF-8" standalone="no"?>
<!-- Created with Inkscape (http://www.inkscape.org/) -->

<svg
   width="90"
   height="90"
   viewBox="0 0 23.812498 23.812498"
   version="1.1"
   id="svg2787"
   inkscape:version="1.3.2 (091e20e, 2023-11-25, custom)"
   sodipodi:docname="today-hamburger.svg"
   xmlns:inkscape="http://www.inkscape.org/namespaces/inkscape"
   xmlns:sodipodi="http://sodipodi.sourceforge.net/DTD/sodipodi-0.dtd"
   xmlns="http://www.w3.org/2000/svg"
   xmlns:svg="http://www.w3.org/2000/svg">
  <sodipodi:namedview
     id="namedview2789"
     pagecolor="#ffffff"
     bordercolor="#000000"
     borderopacity="0.25"
     inkscape:showpageshadow="2"
     inkscape:pageopacity="0.0"
     inkscape:pagecheckerboard="0"
     inkscape:deskcolor="#d1d1d1"
     inkscape:document-units="mm"
     showgrid="false"
     inkscape:zoom="3.7415827"
     inkscape:cx="26.993924"
     inkscape:cy="47.172551"
     inkscape:window-width="1536"
     inkscape:window-height="793"
     inkscape:window-x="-8"
     inkscape:window-y="-8"
     inkscape:window-maximized="1"
     inkscape:current-layer="layer1" />
  <defs
     id="defs2784">
    <mask
       maskUnits="userSpaceOnUse"
       id="mask10222">
      <circle
         style="fill:#ffffff;fill-opacity:1;fill-rule:evenodd;stroke-width:0.223867"
         id="circle10224"
         cx="13.229167"
         cy="14.816666"
         r="11" />
    </mask>
    <filter
       inkscape:collect="always"
       style="color-interpolation-filters:sRGB"
       id="filter1"
       x="-0.064727163"
       y="-0.063542501"
       width="1.1294543"
       height="1.127085">
      <feGaussianBlur
         inkscape:collect="always"
         stdDeviation="0.43177377"
         id="feGaussianBlur1" />
    </filter>
  </defs>
  <g
     inkscape:label="Layer 1"
     inkscape:groupmode="layer"
     id="layer1">
    <rect
       style="opacity:0.241681;mix-blend-mode:multiply;fill:#000000;fill-opacity:1;stroke:#8f8f8f;stroke-width:0;stroke-linecap:square;stroke-miterlimit:8;stroke-dasharray:none;stroke-opacity:1;paint-order:fill markers stroke;filter:url(#filter1);stop-color:#000000"
       id="rect10449-7-0-8-5-2"
       width="16.009617"
       height="16.308094"
       x="25.903391"
       y="-35.468212"
       rx="0.79812431"
       ry="0.78270608"
       transform="matrix(1.0014655,0,0,-0.89894167,-21.758978,-11.79638)" />
    <rect
       style="fill:#e6e6e6;fill-opacity:1;stroke:#777777;stroke-width:0.128093;stroke-linecap:square;stroke-miterlimit:8;stroke-dasharray:none;stroke-opacity:1;paint-order:fill markers stroke;stop-color:#000000"
       id="rect10449-7-0-8-5"
       width="15.051283"
       height="14.34674"
       x="4.5257988"
       y="-19.306013"
       rx="0.75034863"
       ry="0.6885711"
       transform="scale(1,-1)" />
    <rect
       style="fill:#e6e6e6;fill-opacity:1;stroke:#5d5d5d;stroke-width:0.128093;stroke-linecap:square;stroke-miterlimit:8;stroke-dasharray:none;stroke-opacity:1;paint-order:fill markers stroke;stop-color:#000000"
       id="rect10449-7-0-8"
       width="14.985509"
       height="14.407895"
       x="4.5320988"
       y="-19.025194"
       rx="0.74706948"
       ry="0.69150609"
       transform="scale(1,-1)" />
    <rect
       style="fill:#ffffff;fill-opacity:1;stroke:#656565;stroke-width:0.126534;stroke-linecap:square;stroke-miterlimit:8;stroke-dasharray:none;stroke-opacity:1;paint-order:fill markers stroke;stop-color:#000000"
       id="rect10449-7-0"
       width="14.910022"
       height="14.460009"
       x="4.5747647"
       y="-18.709728"
       rx="0.74330658"
       ry="0.69400728"
       transform="scale(1,-1)" />
    <path
       id="rect10449-7-0-1"
       style="mix-blend-mode:multiply;fill:#ff5151;fill-opacity:1;stroke:#838383;stroke-width:0;stroke-linecap:square;stroke-miterlimit:8;stroke-dasharray:none;stroke-opacity:1;paint-order:fill markers stroke;stop-color:#000000"
       d="m 5.2544798,4.2508394 c -0.3757622,0 -0.6782609,0.3035752 -0.6782609,0.6806754 V 9.2637201 H 19.483335 V 4.9315148 c 0,-0.3771002 -0.302502,-0.6806754 -0.678261,-0.6806754 z" />
    <g
       id="g10343"
       transform="matrix(0.7455472,0,0,0.69697825,2.5122456,1.4086078)"
       style="stroke-width:1.0887">
      <g
         id="g45070"
         transform="matrix(0.00175636,0.55935531,-0.60790744,0.00190881,30.390296,1.470333)"
         style="stroke-width:1.49134"
         inkscape:transform-center-x="-17.108952"
         inkscape:transform-center-y="-14.836642">
        <circle
           style="fill:#1f6847;fill-opacity:1;fill-rule:evenodd;stroke-width:0.490244"
           id="path39952"
           cx="6.0637498"
           cy="15.875"
           r="1.5375154" />
        <rect
           style="fill:#fff7f1;fill-opacity:1;fill-rule:evenodd;stroke:#a59561;stroke-width:0.395205;stroke-dasharray:none;stroke-opacity:1"
           id="rect36147"
           width="4.242857"
           height="1.8032143"
           x="2.6139159"
           y="14.973392"
           rx="1.1154326"
           ry="0.92881119" />
      </g>
      <g
         id="g45070-3"
         transform="matrix(0.00175636,0.55935531,-0.60790744,0.00190881,27.259272,1.480164)"
         style="stroke-width:1.49134"
         inkscape:transform-center-x="-13.977929"
         inkscape:transform-center-y="-14.826811">
        <circle
           style="fill:#1f6847;fill-opacity:1;fill-rule:evenodd;stroke-width:0.490244"
           id="path39952-3"
           cx="6.0637498"
           cy="15.875"
           r="1.5375154" />
        <rect
           style="fill:#fff7f1;fill-opacity:1;fill-rule:evenodd;stroke:#a59561;stroke-width:0.395205;stroke-dasharray:none;stroke-opacity:1"
           id="rect36147-1"
           width="4.242857"
           height="1.8032143"
           x="2.6139159"
           y="14.973392"
           rx="1.1154326"
           ry="0.92881119" />
      </g>
      <g
         id="g45070-4"
         transform="matrix(0.00175636,0.55935531,-0.60790744,0.00190881,24.128247,1.489996)"
         style="stroke-width:1.49134"
         inkscape:transform-center-x="-10.846904"
         inkscape:transform-center-y="-14.816979">
        <circle
           style="fill:#1f6847;fill-opacity:1;fill-rule:evenodd;stroke-width:0.490244"
           id="path39952-6"
           cx="6.0637498"
           cy="15.875"
           r="1.5375154" />
        <rect
           style="fill:#fff7f1;fill-opacity:1;fill-rule:evenodd;stroke:#a59561;stroke-width:0.395205;stroke-dasharray:none;stroke-opacity:1"
           id="rect36147-18"
           width="4.242857"
           height="1.8032143"
           x="2.6139159"
           y="14.973392"
           rx="1.1154326"
           ry="0.92881119" />
      </g>
      <g
         id="g45070-0"
         transform="matrix(0.00175636,0.55935531,-0.60790744,0.00190881,20.997221,1.499827)"
         style="stroke-width:1.49134"
         inkscape:transform-center-x="-7.7158776"
         inkscape:transform-center-y="-14.807148">
        <circle
           style="fill:#1f6847;fill-opacity:1;fill-rule:evenodd;stroke-width:0.490244"
           id="path39952-32"
           cx="6.0637498"
           cy="15.875"
           r="1.5375154" />
        <rect
           style="fill:#fff7f1;fill-opacity:1;fill-rule:evenodd;stroke:#a59561;stroke-width:0.395205;stroke-dasharray:none;stroke-opacity:1"
           id="rect36147-6"
           width="4.242857"
           height="1.8032143"
           x="2.6139159"
           y="14.973392"
           rx="1.1154326"
           ry="0.92881119" />
      </g>
      <g
         id="g45070-8"
         transform="matrix(0.00175636,0.55935531,-0.60790744,0.00190881,17.866196,1.509659)"
         style="stroke-width:1.49134"
         inkscape:transform-center-x="-4.5848527"
         inkscape:transform-center-y="-14.797316">
        <circle
           style="fill:#1f6847;fill-opacity:1;fill-rule:evenodd;stroke-width:0.490244"
           id="path39952-65"
           cx="6.0637498"
           cy="15.875"
           r="1.5375154" />
        <rect
           style="fill:#fff7f1;fill-opacity:1;fill-rule:evenodd;stroke:#a59561;stroke-width:0.395205;stroke-dasharray:none;stroke-opacity:1"
           id="rect36147-8"
           width="4.242857"
           height="1.8032143"
           x="2.6139159"
           y="14.973392"
           rx="1.1154326"
           ry="0.92881119" />
      </g>
      <g
         id="g45070-2"
         transform="matrix(0.00175636,0.55935531,-0.60790744,0.00190881,14.735171,1.519489)"
         style="stroke-width:1.49134"
         inkscape:transform-center-x="-1.4538279"
         inkscape:transform-center-y="-14.787486">
        <circle
           style="fill:#1f6847;fill-opacity:1;fill-rule:evenodd;stroke-width:0.490244"
           id="path39952-8"
           cx="6.0637498"
           cy="15.875"
           r="1.5375154" />
        <rect
           style="fill:#fff7f1;fill-opacity:1;fill-rule:evenodd;stroke:#a59561;stroke-width:0.395205;stroke-dasharray:none;stroke-opacity:1"
           id="rect36147-9"
           width="4.242857"
           height="1.8032143"
           x="2.6139159"
           y="14.973392"
           rx="1.1154326"
           ry="0.92881119" />
      </g>
    </g>
    <path
       d="m 13.726238,9.9725646 q 0,0.4190494 -0.09233,0.7315614 -0.09233,0.305409 -0.248589,0.539793 -0.156256,0.227281 -0.362229,0.397742 -0.198871,0.170461 -0.41905,0.319614 -0.248589,0.170461 -0.497178,0.326717 -0.248589,0.156256 -0.44746,0.355127 -0.198871,0.191769 -0.326716,0.454563 -0.120744,0.262794 -0.120744,0.639228 v 0.113641 H 9.6280733 q -0.0071,-0.06392 -0.014205,-0.156256 0,-0.09944 0,-0.156256 0,-0.53269 0.1349483,-0.89492 0.1420507,-0.369332 0.3551265,-0.632126 0.220179,-0.262794 0.482973,-0.44746 0.262794,-0.191768 0.518485,-0.355127 0.177564,-0.120743 0.33382,-0.234383 0.163358,-0.120744 0.284101,-0.262794 0.120743,-0.142051 0.191769,-0.312512 0.07103,-0.170461 0.07103,-0.39064 0,-0.4758698 -0.348024,-0.7599714 -0.348025,-0.2912041 -1.086689,-0.2912041 -0.546895,0 -1.0795855,0.1349483 Q 8.9462296,9.226798 8.5413849,9.411464 V 8.040674 Q 8.754461,7.9412385 9.017255,7.856008 q 0.2698964,-0.08523 0.553998,-0.1420507 0.2912041,-0.063923 0.589511,-0.099436 0.305409,-0.035513 0.58951,-0.035513 0.703152,0 1.25715,0.1704609 0.553998,0.1633584 0.930432,0.4758701 0.383537,0.3125118 0.582409,0.7599717 0.205973,0.4403574 0.205973,0.9872529 z M 9.5002276,15.363392 h 1.9105834 v 1.896377 H 9.5002276 Z"
       id="text1"
       style="font-weight:bold;font-size:14.546px;font-family:Corbel;-inkscape-font-specification:'Corbel Bold';fill:#353232;stroke:#393939;stroke-width:0;stroke-linecap:round;stroke-linejoin:round"
       transform="scale(1.0705158,0.93412914)"
       aria-label="?" />
  </g>
</svg>
