<?xml version="1.0" encoding="UTF-8" standalone="no"?>
<!-- Created with Inkscape (http://www.inkscape.org/) -->

<svg
   width="107"
   height="136"
   viewBox="0 0 28.310421 35.983325"
   version="1.1"
   id="svg2787"
   inkscape:version="1.3.2 (091e20e, 2023-11-25, custom)"
   sodipodi:docname="about.svg"
   xmlns:inkscape="http://www.inkscape.org/namespaces/inkscape"
   xmlns:sodipodi="http://sodipodi.sourceforge.net/DTD/sodipodi-0.dtd"
   xmlns:xlink="http://www.w3.org/1999/xlink"
   xmlns="http://www.w3.org/2000/svg"
   xmlns:svg="http://www.w3.org/2000/svg">
  <sodipodi:namedview
     id="namedview2789"
     pagecolor="#ffffff"
     bordercolor="#000000"
     borderopacity="0.25"
     inkscape:showpageshadow="2"
     inkscape:pageopacity="0.0"
     inkscape:pagecheckerboard="0"
     inkscape:deskcolor="#d1d1d1"
     inkscape:document-units="mm"
     showgrid="false"
     inkscape:zoom="3.7415827"
     inkscape:cx="93.142402"
     inkscape:cy="105.70393"
     inkscape:window-width="1536"
     inkscape:window-height="793"
     inkscape:window-x="-8"
     inkscape:window-y="-8"
     inkscape:window-maximized="1"
     inkscape:current-layer="layer1" />
  <defs
     id="defs2784">
    <linearGradient
       id="linearGradient15"
       inkscape:collect="always">
      <stop
         style="stop-color:#b9c2f1;stop-opacity:1;"
         offset="0"
         id="stop15" />
      <stop
         style="stop-color:#b9c2f1;stop-opacity:0;"
         offset="1"
         id="stop16" />
    </linearGradient>
    <linearGradient
       id="linearGradient2"
       inkscape:collect="always">
      <stop
         style="stop-color:#00162a;stop-opacity:1;"
         offset="0.08508275"
         id="stop3" />
      <stop
         style="stop-color:#052a37;stop-opacity:0.47186148;"
         offset="0.49799585"
         id="stop11" />
      <stop
         style="stop-color:#09576c;stop-opacity:0.00649348;"
         offset="1"
         id="stop12" />
    </linearGradient>
    <linearGradient
       id="linearGradient1"
       inkscape:collect="always">
      <stop
         style="stop-color:#d49262;stop-opacity:1;"
         offset="0"
         id="stop1" />
      <stop
         style="stop-color:#fbd6bb;stop-opacity:0.94339621;"
         offset="1"
         id="stop2" />
    </linearGradient>
    <linearGradient
       inkscape:collect="always"
       id="linearGradient26559">
      <stop
         style="stop-color:#ffe9d9;stop-opacity:1;"
         offset="0"
         id="stop26555" />
      <stop
         style="stop-color:#ffd0af;stop-opacity:1;"
         offset="0.60792077"
         id="stop26563" />
      <stop
         style="stop-color:#ffb380;stop-opacity:1;"
         offset="1"
         id="stop26557" />
    </linearGradient>
    <radialGradient
       inkscape:collect="always"
       xlink:href="#linearGradient26559"
       id="radialGradient26561-8-4-3"
       cx="50.0355"
       cy="10.592171"
       fx="50.0355"
       fy="10.592171"
       r="5.7715068"
       gradientTransform="matrix(-0.71380037,1.3259192,0.74362224,0.36965225,44.52733,-60.979375)"
       gradientUnits="userSpaceOnUse" />
    <mask
       maskUnits="userSpaceOnUse"
       id="mask10222">
      <circle
         style="fill:#ffffff;fill-opacity:1;fill-rule:evenodd;stroke-width:0.223867"
         id="circle10224"
         cx="13.229167"
         cy="14.816666"
         r="11" />
    </mask>
    <radialGradient
       inkscape:collect="always"
       xlink:href="#linearGradient1"
       id="radialGradient2"
       cx="-13.076502"
       cy="15.057696"
       fx="-13.076502"
       fy="15.057696"
       r="5.2109294"
       gradientTransform="matrix(-0.29048001,1.3466471,-1.5350576,-0.2958739,31.817666,38.496715)"
       gradientUnits="userSpaceOnUse" />
    <radialGradient
       inkscape:collect="always"
       xlink:href="#linearGradient2"
       id="radialGradient4"
       cx="17.419523"
       cy="17.798811"
       fx="17.419523"
       fy="17.798811"
       r="11.898783"
       gradientTransform="matrix(0.11405181,0.85482902,-1.6243646,0.20185514,34.807705,1.151359)"
       gradientUnits="userSpaceOnUse" />
    <linearGradient
       id="linearGradient7"
       inkscape:collect="always">
      <stop
         style="stop-color:#512525;stop-opacity:1;"
         offset="0"
         id="stop7" />
      <stop
         style="stop-color:#994646;stop-opacity:0.99215686;"
         offset="0.42508143"
         id="stop9" />
      <stop
         style="stop-color:#b76331;stop-opacity:0.99134201;"
         offset="1"
         id="stop8" />
    </linearGradient>
    <linearGradient
       inkscape:collect="always"
       xlink:href="#linearGradient15"
       id="linearGradient16-2"
       x1="13.721398"
       y1="5.471777"
       x2="13.78475"
       y2="8.4719296"
       gradientUnits="userSpaceOnUse"
       gradientTransform="translate(-0.45118961,0.55208691)" />
    <linearGradient
       inkscape:collect="always"
       xlink:href="#linearGradient15"
       id="linearGradient6"
       gradientUnits="userSpaceOnUse"
       gradientTransform="matrix(-1,0,0,1,32.395974,0.56458669)"
       x1="13.721398"
       y1="5.471777"
       x2="13.78475"
       y2="8.4719296" />
    <linearGradient
       inkscape:collect="always"
       xlink:href="#linearGradient7"
       id="linearGradient3"
       gradientUnits="userSpaceOnUse"
       gradientTransform="matrix(0.08882218,-0.01084407,0.02590891,0.09290898,25.568178,11.178244)"
       x1="-78.830757"
       y1="-70.426285"
       x2="-85.386505"
       y2="-34.024429" />
    <linearGradient
       inkscape:collect="always"
       xlink:href="#linearGradient7"
       id="linearGradient4"
       gradientUnits="userSpaceOnUse"
       gradientTransform="matrix(0.08882218,-0.01084407,0.02590891,0.09290898,25.568178,11.173752)"
       x1="-78.830757"
       y1="-70.426285"
       x2="-85.386505"
       y2="-34.024429" />
    <radialGradient
       inkscape:collect="always"
       xlink:href="#linearGradient2-7"
       id="radialGradient4-5"
       cx="18.845335"
       cy="11.760698"
       fx="18.845335"
       fy="11.760698"
       r="11.898783"
       gradientTransform="matrix(0.11405181,0.85482902,-1.6243646,0.20185514,34.807705,1.1513597)"
       gradientUnits="userSpaceOnUse" />
    <linearGradient
       id="linearGradient2-7"
       inkscape:collect="always">
      <stop
         style="stop-color:#00162a;stop-opacity:1;"
         offset="0.08508275"
         id="stop3-6" />
      <stop
         style="stop-color:#052a37;stop-opacity:0.47186148;"
         offset="0.49799585"
         id="stop11-6" />
      <stop
         style="stop-color:#09576c;stop-opacity:0.00649348;"
         offset="1"
         id="stop12-5" />
    </linearGradient>
  </defs>
  <g
     inkscape:label="Layer 1"
     inkscape:groupmode="layer"
     id="layer1">
    <path
       id="path13238-1-2-5-8-1"
       style="fill:url(#radialGradient2);fill-opacity:1;stroke:#000000;stroke-width:0;stroke-linecap:butt;stroke-linejoin:miter;stroke-dasharray:none;stroke-opacity:1"
       d="m 10.974585,14.936605 c -0.04515,0.0055 -0.07094,0.02923 -0.06679,0.0781 0.02163,0.255299 0.560581,1.580016 -0.537804,2.971923 -0.0019,0.29156 0.0061,0.564531 0.0377,0.76294 0.467822,1.352566 2.593893,5.153318 3.551127,5.441979 0.605589,0.155478 1.921555,-1.216495 2.454177,-2.2448 0.730816,-1.456475 1.143166,-2.997383 1.330425,-4.594031 0.04022,-0.176885 0.06285,-0.09567 -0.196681,-0.661529 -0.27587,-0.674833 -0.658113,-0.46464 -1.210507,-0.945907 l 0.134903,-0.428505 c 0,0 -0.935267,0.917683 -1.179622,1.148725 -0.231392,0.218787 -0.906035,0.362481 -1.720149,0.04099 -0.922976,-0.364465 -1.555928,-0.983118 -1.710605,-1.143542 -0.125663,-0.130344 -0.690581,-0.450561 -0.88619,-0.426349 z"
       sodipodi:nodetypes="cccccccsccscccc" />
    <path
       style="fill:url(#radialGradient26561-8-4-3);fill-opacity:1;stroke:#000000;stroke-width:0;stroke-linecap:butt;stroke-linejoin:miter;stroke-dasharray:none;stroke-opacity:1"
       d="m 16.271152,8.2070754 c 0.484362,0.6940515 0.902875,1.9770136 0.938274,3.3985866 0.03632,1.458532 -0.04284,2.783974 -1.043304,4.067362 -0.473165,0.606974 -1.332083,1.241155 -1.817236,1.292036 -1.418176,0.148736 -1.716338,-0.374425 -2.44288,-0.894966 -0.511726,-0.366629 -0.749335,-0.886861 -1.076844,-1.641252 -0.07679,-0.176889 -0.124186,-0.186188 -0.200971,-0.376332 -0.03136,-0.07767 -0.05188,-0.05755 -0.315896,-0.02537 -0.163271,0.01989 -1.0519894,-1.081434 -1.1143404,-1.402126 -0.04251,-0.218653 1.3951174,-0.210542 1.4344744,-0.32871 0.423813,-1.272423 0.919218,-1.006836 1.040312,-1.643049 0.121084,-0.636205 0.87809,-2.6534631 1.825403,-3.3621444 1.18279,0.1092556 1.985919,0.2219297 2.773008,0.9159748 z"
       id="path12892-7-4-9-0-9"
       sodipodi:nodetypes="cssssssssssccc" />
    <path
       id="path3866-5-8-8-7"
       mask="none"
       style="opacity:0.84238179;mix-blend-mode:multiply;fill:url(#radialGradient4);fill-opacity:0.972549;stroke:#000000;stroke-width:0;stroke-linecap:butt;stroke-linejoin:miter;stroke-dasharray:none;stroke-opacity:0"
       d="m 10.583007,16.643142 c 0,0 -0.170516,0.344271 -1.6193077,0.655883 -1.6272707,0.349998 -3.5356542,0.847055 -4.340964,1.629838 -1.5926449,1.548096 -2.2609577,6.776403 -2.5153022,10.96489 -0.3087851,5.084989 23.9775489,4.420314 21.9627349,-1.97004 -0.187375,-0.594296 -0.714588,-2.857793 -0.944846,-3.61569 -0.953261,-3.137691 -0.893693,-4.818759 -2.213162,-5.578907 -1.190976,-0.686123 -2.2121,-0.6302 -3.261118,-1.055066 -0.181902,1.514841 -0.582453,2.976792 -1.292359,4.358641 -0.517384,0.975619 -1.795695,2.277294 -2.383958,2.129783 -0.929845,-0.273873 -2.995084,-3.879879 -3.449519,-5.163143 -0.113317,-0.697843 0.0578,-2.356189 0.0578,-2.356189 z"
       sodipodi:nodetypes="ccssssscccccc" />
    <path
       id="path3866-5-8-8-7-8"
       mask="none"
       style="opacity:0.842382;mix-blend-mode:multiply;fill:url(#radialGradient4-5);fill-opacity:0.972549;stroke:#000000;stroke-width:0;stroke-linecap:butt;stroke-linejoin:miter;stroke-dasharray:none;stroke-opacity:0"
       d="m 10.583007,16.643142 c 0,0 -0.170516,0.344271 -1.619308,0.655883 -1.627271,0.349998 -3.535654,0.847055 -4.340964,1.629838 -1.592645,1.548096 -2.260958,6.776403 -2.515302,10.96489 -0.308785,5.084989 23.977549,4.420314 21.962735,-1.97004 -0.187375,-0.594296 -0.714588,-2.857793 -0.944846,-3.61569 -0.953261,-3.137691 -0.893693,-4.818759 -2.213162,-5.578907 -1.190976,-0.686123 -2.2121,-0.6302 -3.261118,-1.055066 -0.181902,1.514841 -0.582453,2.976792 -1.292359,4.358641 -0.517384,0.975619 -1.795695,2.277294 -2.383958,2.129783 -0.929845,-0.273873 -2.995084,-3.879879 -3.449519,-5.163143 -0.113317,-0.697843 0.0578,-2.356189 0.0578,-2.356189 z"
       sodipodi:nodetypes="ccssssscccccc" />
    <path
       style="fill:none;stroke:#848382;stroke-width:0.191083;stroke-linecap:round;stroke-linejoin:miter;stroke-dasharray:none;stroke-opacity:1"
       d="m 16.071101,17.884235 c 0,0 -0.24288,2.363046 -1.804722,3.312418 -0.468349,0.284685 -1.68843,-0.925087 -3.085679,-3.372101"
       id="path27717-0-1-6"
       sodipodi:nodetypes="csc" />
    <path
       style="fill:#7b5e5e;fill-opacity:1;stroke:#000000;stroke-width:0;stroke-linecap:butt;stroke-linejoin:miter;stroke-dasharray:none;stroke-opacity:1"
       d="m 14.588185,5.6849084 c 1.73908,0.3581007 3.105502,1.7308129 3.54027,2.68574 0.43477,0.9549335 1.61486,3.8197276 0.993758,4.4762446 -0.621098,0.656515 -0.807429,1.133979 -0.807429,1.133979 0,0 0.496881,1.13398 0.31055,1.909862 -0.186332,0.775886 -0.669134,2.367002 -0.669134,2.367002 l -0.379013,-0.59851 c 0,0 -0.0078,0.439784 -0.256161,0.67852 -0.248443,0.238732 -1.297424,1.4897 -1.297424,1.4897 0,0 0.277937,-1.021854 -0.325617,-1.962923 -0.466569,-0.727478 0.09007,-1.822861 0.09007,-1.822861 0,0 1.098205,-0.993608 1.27887,-2.447008 0.133399,-1.073205 0.413512,-4.5021931 -1.678117,-5.5698838 -1.289438,-0.6582046 -1.780256,-0.6631526 -1.780256,-0.6631526 0,0 -0.399956,1.5765233 -1.380546,3.1576294 -0.433762,0.699398 -1.230621,1.170411 -1.521692,1.999386 -0.398831,0.140945 -0.619426,0.150024 -0.8800267,0.221652 -0.229654,0.328358 0.0056,0.885962 0.2458747,1.0014 0.372662,0.179048 0.752163,0.04215 0.752163,0.04215 0,0 0.906803,3.121518 0.720473,3.837713 -0.18633,0.716203 -2.2359584,1.253348 -2.2359584,1.253348 l 0.4968777,-0.895247 c 0,0 -0.4968777,0.656517 -1.1179765,0.656517 -0.6210995,0 -0.7453226,-0.358101 -0.7453226,-0.358101 0,0 0.5145759,0.478434 0.5589923,-0.417784 C 8.5945725,15.980254 9.1535636,16.427879 9.3398946,15.652 9.5262243,14.876119 8.8740711,16.069784 8.4393018,16.248831 8.0045277,16.427881 8.93618,15.890732 8.8740721,15.174538 8.8119609,14.458339 7.6008192,12.757372 7.8492575,11.862122 8.0976961,10.966873 8.3194367,8.6090818 9.8721883,7.2960541 11.424932,5.9830203 13.014941,5.5261076 14.588185,5.6849101 Z"
       id="path26059-6-5-7"
       sodipodi:nodetypes="csscsccscscsscsccscsccscsssssscc" />
    <g
       id="g27721-2-8-1"
       transform="matrix(-0.62106817,0,0,0.5968015,48.998586,4.4647539)"
       style="stroke-width:1.18439">
      <ellipse
         style="fill:#aa0000;fill-opacity:1;fill-rule:evenodd;stroke-width:0.313366"
         id="path11936-3-7-4-3-1"
         cx="56.012829"
         cy="28.856459"
         rx="0.53422982"
         ry="0.59104741" />
      <ellipse
         style="fill:#ffffff;fill-rule:evenodd;stroke-width:0.313371"
         id="path12898-2-3-7-8-0"
         cx="61.47369"
         cy="-12.193314"
         rx="0.13521306"
         ry="0.17366834"
         transform="matrix(0.78456418,0.62004762,-0.62454848,0.78098604,0,0)" />
    </g>
    <g
       id="g6"
       transform="matrix(0.85151969,-0.00572734,0.00572734,0.85151969,0.23803958,5.2353311)"
       style="stroke-width:1.17434">
      <g
         id="g16-4"
         transform="translate(-0.47065884,0.55548234)"
         style="stroke-width:1.17434">
        <path
           id="path1-1-90"
           style="fill:url(#linearGradient3);fill-opacity:1;stroke:#777777;stroke-width:0;stroke-linecap:round"
           d="m 13.460677,5.0637736 c -1.037896,0.0083 -1.399803,0.2791554 -1.677934,0.3979085 -0.14654,0.06257 -0.193311,0.087531 -0.248563,0.3395142 -0.0246,0.1122226 0.04372,0.1229245 0.04496,0.2041219 0.0012,0.081196 -0.0056,0.095109 -0.02222,0.1762166 -0.02563,0.125057 -0.04812,0.3020668 -0.02222,0.6526734 0.08887,1.2030101 0.75625,1.7991358 1.754415,1.8727539 1.121772,0.082735 2.169498,-0.3011822 2.573487,-1.4614095 0.313637,-0.9007245 0.412871,-1.0423258 0.580843,-1.045931 l -0.03204,-0.6624919 c -0.132812,-0.0037 -0.285253,3.094e-4 -0.460953,0.022221 -0.03461,0.00432 -0.06011,0.012754 -0.108521,0.00827 -0.04841,-0.00449 -0.418379,-0.1684957 -0.52865,-0.2087728 -0.594925,-0.2172989 -1.194705,-0.3003314 -1.8526,-0.2950724 z m 0.06563,0.3286621 c 0.609836,-0.00226 1.297034,0.1466346 1.789038,0.3327962 0.458003,0.1659449 0.344798,0.7217637 0.238229,1.1001913 -0.294852,1.0470081 -1.035445,1.5124609 -2.080494,1.5105021 -0.979358,-0.00183 -1.72816,-0.746647 -1.569413,-2.1156331 0.0568,-0.4898077 0.550111,-0.7127769 1.2361,-0.8030518 0.08574,-0.011284 0.174455,-0.018725 0.265617,-0.022221 0.03988,-0.00153 0.08027,-0.00243 0.120923,-0.00258 z" />
        <path
           id="path1-1-6-0"
           style="fill:url(#linearGradient4);fill-opacity:1;stroke:#777777;stroke-width:0;stroke-linecap:round"
           d="m 13.460564,5.059162 c -1.037895,0.0083 -1.399803,0.2791556 -1.677934,0.3979086 -0.14654,0.06257 -0.193312,0.087531 -0.248564,0.3395141 -0.0246,0.1122225 0.04372,0.1229246 0.04496,0.2041219 0.0012,0.081196 -0.0056,0.095109 -0.02222,0.1762167 -0.02563,0.1250568 -0.04812,0.302067 -0.02222,0.6526733 0.08887,1.2030089 0.756251,1.7991359 1.754415,1.8727539 1.121771,0.082735 2.169498,-0.3011834 2.573486,-1.4614095 0.304015,-0.8730898 0.406869,-1.0326286 0.565857,-1.0448975 0.158841,0.012423 0.261491,0.1722827 0.56534,1.0448975 0.403989,1.1602261 1.451716,1.5441444 2.573487,1.4614095 0.998164,-0.073618 1.665545,-0.669745 1.754415,-1.8727539 0.0259,-0.3506063 0.0034,-0.5276165 -0.02222,-0.6526733 -0.01662,-0.081108 -0.02342,-0.095021 -0.02222,-0.1762167 0.0012,-0.081197 0.07007,-0.091899 0.04547,-0.2041219 C 21.267364,5.5446018 21.220592,5.5196405 21.074052,5.4570706 20.795922,5.3383176 20.434014,5.067462 19.396119,5.059162 h -5.17e-4 c -0.657894,-0.00526 -1.257676,0.077774 -1.8526,0.2950725 -0.110271,0.040277 -0.48024,0.2042827 -0.52865,0.2087727 -0.04841,0.00448 -0.07391,-0.00395 -0.108521,-0.00827 -0.169425,-0.021129 -0.345937,-0.025245 -0.47749,-0.022221 -0.131595,-0.00304 -0.308401,0.00107 -0.478007,0.022221 -0.03461,0.00432 -0.06011,0.012752 -0.10852,0.00827 -0.04841,-0.00449 -0.418379,-0.1684957 -0.52865,-0.2087727 C 14.718239,5.1369358 14.118458,5.053903 13.460564,5.059162 Z m 0.07338,0.3787883 c 0.589116,-0.00218 1.253806,0.1415909 1.729094,0.3214274 0.442442,0.1603066 0.332392,0.6968974 0.229443,1.0624674 -0.284834,1.0114347 -1.000154,1.4612348 -2.009697,1.4593425 -0.946083,-0.00177 -1.669023,-0.7213298 -1.515669,-2.0438029 0.05487,-0.4731658 0.531042,-0.6884556 1.193725,-0.7756633 0.08283,-0.010901 0.168767,-0.018327 0.256832,-0.021704 0.03853,-0.00148 0.077,-0.00192 0.116272,-0.00207 z m 5.788794,0 c 0.03927,1.5e-4 0.07774,5.87e-4 0.116272,0.00207 0.08807,0.00338 0.174002,0.010803 0.256832,0.021704 0.662683,0.087208 1.138856,0.3024975 1.193726,0.7756633 0.153353,1.3224731 -0.569587,2.0420329 -1.51567,2.0438029 -1.009543,0.00189 -1.724863,-0.4479078 -2.009697,-1.4593425 -0.102949,-0.36557 -0.212999,-0.9021608 0.229444,-1.0624674 0.475287,-0.1798365 1.139978,-0.3236074 1.729093,-0.3214274 z" />
      </g>
      <path
         style="opacity:0.549912;fill:url(#linearGradient16-2);fill-opacity:1;stroke:#777777;stroke-width:0;stroke-linecap:round"
         d="m 12.991231,6.004645 c 0.616455,-0.02364 1.338417,0.127408 1.845391,0.319234 0.442443,0.160307 0.332796,0.696904 0.229847,1.062475 -0.284835,1.011437 -1.000276,1.461199 -2.009821,1.459307 -0.946085,-0.0018 -1.669301,-0.721275 -1.515947,-2.04375 0.05487,-0.473167 0.531197,-0.688776 1.193881,-0.775984 0.08283,-0.0109 0.168584,-0.0179 0.256649,-0.02128 z"
         id="path6-0-8" />
      <path
         style="opacity:0.549912;fill:url(#linearGradient6);fill-opacity:1;stroke:#777777;stroke-width:0;stroke-linecap:round"
         d="m 18.953553,6.0171448 c -0.616455,-0.02364 -1.338417,0.127408 -1.845391,0.319234 -0.442443,0.160307 -0.332796,0.696904 -0.229847,1.062475 0.284835,1.011437 1.000276,1.461199 2.009821,1.459307 0.946085,-0.0018 1.669301,-0.721275 1.515947,-2.04375 -0.05487,-0.473167 -0.531197,-0.688776 -1.193881,-0.775984 -0.08283,-0.0109 -0.168584,-0.0179 -0.256649,-0.02128 z"
         id="path6-0-5" />
    </g>
  </g>
</svg>
